<svg xmlns="http://www.w3.org/2000/svg" version="1.1" xmlns:xlink="http://www.w3.org/1999/xlink" xmlns:svgjs="http://svgjs.dev/svgjs" viewBox="0 0 1422 800"><g stroke-width="2" stroke="hsl(335, 77%, 50%)" fill="none" stroke-linecap="butt"><line x1="0" y1="0" x2="108" y2="108"></line><line x1="108" y1="0" x2="216" y2="108"></line><line x1="216" y1="0" x2="324" y2="108"></line><line x1="324" y1="0" x2="432" y2="108"></line><line x1="432" y1="0" x2="540" y2="108"></line><line x1="540" y1="0" x2="648" y2="108"></line><line x1="648" y1="0" x2="756" y2="108"></line><line x1="864" y1="0" x2="756" y2="108"></line><line x1="864" y1="0" x2="972" y2="108"></line><line x1="1080" y1="0" x2="972" y2="108"></line><line x1="1080" y1="0" x2="1188" y2="108"></line><line x1="1188" y1="0" x2="1296" y2="108"></line><line x1="1296" y1="0" x2="1404" y2="108"></line><line x1="1404" y1="0" x2="1512" y2="108"></line><line x1="0" y1="108" x2="108" y2="216"></line><line x1="108" y1="108" x2="216" y2="216"></line><line x1="216" y1="108" x2="324" y2="216"></line><line x1="432" y1="108" x2="324" y2="216"></line><line x1="432" y1="108" x2="540" y2="216"></line><line x1="540" y1="108" x2="648" y2="216"></line><line x1="648" y1="108" x2="756" y2="216"></line><line x1="756" y1="108" x2="864" y2="216"></line><line x1="864" y1="108" x2="972" y2="216"></line><line x1="972" y1="108" x2="1080" y2="216"></line><line x1="1188" y1="108" x2="1080" y2="216"></line><line x1="1188" y1="108" x2="1296" y2="216"></line><line x1="1296" y1="108" x2="1404" y2="216"></line><line x1="1404" y1="108" x2="1512" y2="216"></line><line x1="108" y1="216" x2="0" y2="324"></line><line x1="108" y1="216" x2="216" y2="324"></line><line x1="216" y1="216" x2="324" y2="324"></line><line x1="324" y1="216" x2="432" y2="324"></line><line x1="432" y1="216" x2="540" y2="324"></line><line x1="540" y1="216" x2="648" y2="324"></line><line x1="648" y1="216" x2="756" y2="324"></line><line x1="756" y1="216" x2="864" y2="324"></line><line x1="864" y1="216" x2="972" y2="324"></line><line x1="972" y1="216" x2="1080" y2="324"></line><line x1="1080" y1="216" x2="1188" y2="324"></line><line x1="1188" y1="216" x2="1296" y2="324"></line><line x1="1296" y1="216" x2="1404" y2="324"></line><line x1="1404" y1="216" x2="1512" y2="324"></line><line x1="0" y1="324" x2="108" y2="432"></line><line x1="108" y1="324" x2="216" y2="432"></line><line x1="216" y1="324" x2="324" y2="432"></line><line x1="324" y1="324" x2="432" y2="432"></line><line x1="432" y1="324" x2="540" y2="432"></line><line x1="540" y1="324" x2="648" y2="432"></line><line x1="648" y1="324" x2="756" y2="432"></line><line x1="756" y1="324" x2="864" y2="432"></line><line x1="864" y1="324" x2="972" y2="432"></line><line x1="972" y1="324" x2="1080" y2="432"></line><line x1="1080" y1="324" x2="1188" y2="432"></line><line x1="1188" y1="324" x2="1296" y2="432"></line><line x1="1404" y1="324" x2="1296" y2="432"></line><line x1="1404" y1="324" x2="1512" y2="432"></line><line x1="0" y1="432" x2="108" y2="540"></line><line x1="108" y1="432" x2="216" y2="540"></line><line x1="216" y1="432" x2="324" y2="540"></line><line x1="324" y1="432" x2="432" y2="540"></line><line x1="432" y1="432" x2="540" y2="540"></line><line x1="648" y1="432" x2="540" y2="540"></line><line x1="648" y1="432" x2="756" y2="540"></line><line x1="756" y1="432" x2="864" y2="540"></line><line x1="864" y1="432" x2="972" y2="540"></line><line x1="972" y1="432" x2="1080" y2="540"></line><line x1="1080" y1="432" x2="1188" y2="540"></line><line x1="1188" y1="432" x2="1296" y2="540"></line><line x1="1296" y1="432" x2="1404" y2="540"></line><line x1="1404" y1="432" x2="1512" y2="540"></line><line x1="108" y1="540" x2="0" y2="648"></line><line x1="108" y1="540" x2="216" y2="648"></line><line x1="216" y1="540" x2="324" y2="648"></line><line x1="324" y1="540" x2="432" y2="648"></line><line x1="432" y1="540" x2="540" y2="648"></line><line x1="540" y1="540" x2="648" y2="648"></line><line x1="648" y1="540" x2="756" y2="648"></line><line x1="756" y1="540" x2="864" y2="648"></line><line x1="864" y1="540" x2="972" y2="648"></line><line x1="1080" y1="540" x2="972" y2="648"></line><line x1="1080" y1="540" x2="1188" y2="648"></line><line x1="1188" y1="540" x2="1296" y2="648"></line><line x1="1296" y1="540" x2="1404" y2="648"></line><line x1="1404" y1="540" x2="1512" y2="648"></line><line x1="0" y1="648" x2="108" y2="756"></line><line x1="108" y1="648" x2="216" y2="756"></line><line x1="324" y1="648" x2="216" y2="756"></line><line x1="324" y1="648" x2="432" y2="756"></line><line x1="432" y1="648" x2="540" y2="756"></line><line x1="540" y1="648" x2="648" y2="756"></line><line x1="648" y1="648" x2="756" y2="756"></line><line x1="756" y1="648" x2="864" y2="756"></line><line x1="864" y1="648" x2="972" y2="756"></line><line x1="972" y1="648" x2="1080" y2="756"></line><line x1="1080" y1="648" x2="1188" y2="756"></line><line x1="1188" y1="648" x2="1296" y2="756"></line><line x1="1296" y1="648" x2="1404" y2="756"></line><line x1="1404" y1="648" x2="1512" y2="756"></line><line x1="108" y1="756" x2="0" y2="864"></line><line x1="108" y1="756" x2="216" y2="864"></line><line x1="216" y1="756" x2="324" y2="864"></line><line x1="324" y1="756" x2="432" y2="864"></line><line x1="432" y1="756" x2="540" y2="864"></line><line x1="540" y1="756" x2="648" y2="864"></line><line x1="648" y1="756" x2="756" y2="864"></line><line x1="756" y1="756" x2="864" y2="864"></line><line x1="864" y1="756" x2="972" y2="864"></line><line x1="972" y1="756" x2="1080" y2="864"></line><line x1="1080" y1="756" x2="1188" y2="864"></line><line x1="1296" y1="756" x2="1188" y2="864"></line><line x1="1296" y1="756" x2="1404" y2="864"></line><line x1="1404" y1="756" x2="1512" y2="864"></line></g></svg>