<svg xmlns="http://www.w3.org/2000/svg" version="1.1" xmlns:xlink="http://www.w3.org/1999/xlink" xmlns:svgjs="http://svgjs.dev/svgjs" viewBox="0 0 800 800"><defs><filter id="bbburst-blur-1" x="-100%" y="-100%" width="400%" height="400%"><feGaussianBlur in="SourceGraphic" stdDeviation="1"></feGaussianBlur></filter><filter id="bbburst-blur-2" x="-100%" y="-100%" width="400%" height="400%"><feGaussianBlur in="SourceGraphic" stdDeviation="2"></feGaussianBlur></filter><filter id="bbburst-blur-3" x="-100%" y="-100%" width="400%" height="400%"><feGaussianBlur in="SourceGraphic" stdDeviation="4"></feGaussianBlur></filter><filter id="bbburst-blur-4" x="-100%" y="-100%" width="400%" height="400%"><feGaussianBlur in="SourceGraphic" stdDeviation="12"></feGaussianBlur></filter><symbol id="bbburst-shape-1" viewBox="0 0 194 167"><path d="m97 0 96.129 166.5H.871L97 0Z"></path></symbol><symbol id="bbburst-shape-2" viewBox="0 0 126 115"><path d="m63 0 62.77 43.877-23.976 70.996H24.206L.23 43.877 63 0Z"></path></symbol><symbol id="bbburst-shape-3" viewBox="0 0 131 127"><path d="m66 0 66 63.5L66 127 0 63.5 66 0Z"></path></symbol><symbol id="bbburst-shape-6" viewBox="0 0 133 116"><path d="M59.7487 10.2513c-13.6683-13.66839-35.8291-13.66839-49.4974 0-13.66839 13.6683-13.66839 35.8291 0 49.4974l49.4974-49.4974ZM66.5 66.5 41.7513 91.2487 66.5 115.997l24.7487-24.7483L66.5 66.5Zm56.249-6.7513c13.668-13.6683 13.668-35.8291 0-49.4974-13.669-13.66839-35.8294-13.66839-49.4977 0l49.4977 49.4974Zm-112.4977 0 31.5 31.5 49.4974-49.4974-31.5-31.5-49.4974 49.4974Zm80.9974 31.5 31.5003-31.5-49.4977-49.4974-31.5 31.5 49.4974 49.4974Z"></path></symbol><symbol id="bbburst-shape-9" viewBox="0 0 182 172"><path d="M13.5809 69.845 91 13.5967l77.419 56.2483-29.571 91.012H43.1524L13.5809 69.845Z" stroke-width="22"></path></symbol><symbol id="bbburst-shape-13" viewBox="0 0 159 159"><path stroke-width="22" d="M11 11h137v137H11z"></path></symbol></defs><use xlink:href="#bbburst-shape-1" width="41.44009101913801" opacity="0.26666486247351306" transform="matrix(1.2004322987904046,0.3485144129312084,-0.3485144129312084,1.2004322987904046,228.33132499612952,-251.64661447957076)" fill="#ffa6d5" filter="url(#bbburst-blur-3)"></use><use xlink:href="#bbburst-shape-3" width="19.99718484131764" opacity="0.5707722363104774" transform="matrix(0.9995160435211033,-0.031107535163040278,0.031107535163040278,0.9995160435211033,507.79425229581335,143.08289554135325)" fill="#2c2891" filter="url(#bbburst-blur-1)"></use><use xlink:href="#bbburst-shape-13" width="39.14225991502217" opacity="0.04835652517293065" transform="matrix(1.6159198543140136,-0.6717909082696611,0.6717909082696611,1.6159198543140136,-258.53018136500975,1.4927678259357435)" fill="none" stroke="#ffa6d5" filter="url(#bbburst-blur-4)"></use><use xlink:href="#bbburst-shape-3" width="32.271097088634356" opacity="0.3417131663071177" transform="matrix(0.9079720202452514,-0.41903079892981243,0.41903079892981243,0.9079720202452514,-70.44568111675326,-25.418089075908938)" fill="#ffa6d5" filter="url(#bbburst-blur-2)"></use><use xlink:href="#bbburst-shape-6" width="13.678710465434136" opacity="0.8537850179665186" transform="matrix(0.8846525929759749,-0.4662507798823335,0.4662507798823335,0.8846525929759749,248.01272317270113,101.13355579636317)" fill="#2c2891"></use><use xlink:href="#bbburst-shape-6" width="16.5438891514623" opacity="0.6517416271257912" transform="matrix(0.9463649185230099,-0.32309973845383566,0.32309973845383566,0.9463649185230099,271.57422346406906,180.60466010676475)" fill="#ff5c58" filter="url(#bbburst-blur-1)"></use><use xlink:href="#bbburst-shape-2" width="25.988057267602144" opacity="0.6393628890295953" transform="matrix(0.997598569723245,-0.06926105461322281,0.06926105461322281,0.997598569723245,336.3621303828811,-158.77906315713446)" fill="#ffa6d5" filter="url(#bbburst-blur-1)"></use><use xlink:href="#bbburst-shape-9" width="13.929178026426694" opacity="0.9173735262020501" transform="matrix(0.9843595428206087,-0.17617119644823437,0.17617119644823437,0.9843595428206087,316.1519741375225,-29.21732295724928)" fill="none" stroke="#00a19d"></use><use xlink:href="#bbburst-shape-13" width="29.21604453202353" opacity="0.187324158215731" transform="matrix(1.2028383769146074,0.3401173900603039,-0.3401173900603039,1.2028383769146074,596.0352445263775,-443.4888115946309)" fill="none" stroke="#00a19d" filter="url(#bbburst-blur-3)"></use><use xlink:href="#bbburst-shape-2" width="23.767651282562813" opacity="0.48230902884567306" transform="matrix(0.8920127617744351,-0.45201021319384455,0.45201021319384455,0.8920127617744351,431.8144955455204,-18.1044022650147)" fill="#2c2891" filter="url(#bbburst-blur-2)"></use><use xlink:href="#bbburst-shape-1" width="17.483131347683777" opacity="0.5595943136324895" transform="matrix(0.9997119837464026,-0.02399894901516412,0.02399894901516412,0.9997119837464026,281.3853466584643,-170.59380727456974)" fill="#00a19d" filter="url(#bbburst-blur-1)"></use><use xlink:href="#bbburst-shape-2" width="33.52837132114062" opacity="0.1919990132695133" transform="matrix(0.887836849151557,0.8799123418208403,-0.8799123418208403,0.887836849151557,708.9103836777089,-332.3794351513591)" fill="#2c2891" filter="url(#bbburst-blur-3)"></use><use xlink:href="#bbburst-shape-9" width="16.51014626086475" opacity="0.800809320254931" transform="matrix(0.9918236618577418,0.12761592290580281,-0.12761592290580281,0.9918236618577418,368.5068978975362,-47.93588080044378)" fill="none" stroke="#ffa6d5"></use><use xlink:href="#bbburst-shape-1" width="37.524298153274444" opacity="0.1298201786827371" transform="matrix(1.2251400070081004,0.24805637106954442,-0.24805637106954442,1.2251400070081004,113.69085987589378,-242.65463735255355)" fill="#ffbd9b" filter="url(#bbburst-blur-3)"></use><use xlink:href="#bbburst-shape-2" width="12.17695405499083" opacity="0.7853588828164539" transform="matrix(0.7564662660103644,-0.6540327120170187,0.6540327120170187,0.7564662660103644,170.35886053589473,12.00388339952923)" fill="#ffa6d5"></use><use xlink:href="#bbburst-shape-9" width="13.412367618040305" opacity="0.8893976307467019" transform="matrix(0.8923656999357316,-0.4513130372349239,0.4513130372349239,0.8923656999357316,218.88133119683079,95.47342122919883)" fill="none" stroke="#ffa6d5"></use><use xlink:href="#bbburst-shape-2" width="30.59412363635017" opacity="0.19170889667784308" transform="matrix(0.9842343263080887,0.770573027633892,-0.770573027633892,0.9842343263080887,1056.5796881773754,9.614266747616512)" fill="#00a19d" filter="url(#bbburst-blur-3)"></use><use xlink:href="#bbburst-shape-6" width="19.856409212737084" opacity="0.599879136806721" transform="matrix(0.9930289549779514,-0.1178706688510662,0.1178706688510662,0.9930289549779514,381.38298524376495,-171.95522121213315)" fill="#2c2891" filter="url(#bbburst-blur-1)"></use><use xlink:href="#bbburst-shape-1" width="13.394728076067373" opacity="0.9154348525430029" transform="matrix(0.7820105807089005,0.6232651535737646,-0.6232651535737646,0.7820105807089005,608.6961159721006,97.09475998504206)" fill="#ff5c58"></use><use xlink:href="#bbburst-shape-6" width="28.990239751332638" opacity="0.16922450628727748" transform="matrix(1.0753907733601404,-0.6372085094942465,0.6372085094942465,1.0753907733601404,417.76742271164983,217.1594355029248)" fill="#ffa6d5" filter="url(#bbburst-blur-3)"></use><use xlink:href="#bbburst-shape-13" width="37.3894163900905" opacity="0.3802074998122522" transform="matrix(0.9632722122097634,0.26852680533702505,-0.26852680533702505,0.9632722122097634,767.7641486108938,27.100224127684783)" fill="none" stroke="#ffa6d5" filter="url(#bbburst-blur-2)"></use><use xlink:href="#bbburst-shape-9" width="16.6036493113278" opacity="0.5793742171112642" transform="matrix(0.7139503747805365,-0.7001963027256938,0.7001963027256938,0.7139503747805365,-67.35477290265226,65.66964688020931)" fill="none" stroke="#ff5c58" filter="url(#bbburst-blur-1)"></use><use xlink:href="#bbburst-shape-9" width="31.68318051821325" opacity="0.39356533345115263" transform="matrix(0.9867147830580284,-0.16246210910470157,0.16246210910470157,0.9867147830580284,142.39148831659543,215.42187941431223)" fill="none" stroke="#ff5c58" filter="url(#bbburst-blur-2)"></use><use xlink:href="#bbburst-shape-3" width="24.63763075086002" opacity="0.4154657828631547" transform="matrix(0.9971547857329133,0.07538125290778702,-0.07538125290778702,0.9971547857329133,167.11462736444332,79.9497276671762)" fill="#2c2891" filter="url(#bbburst-blur-2)"></use><use xlink:href="#bbburst-shape-9" width="16.254318251585957" opacity="0.7917620872965407" transform="matrix(0.990235225549057,0.13940659267699043,-0.13940659267699043,0.990235225549057,516.1756921458882,-61.337272755070614)" fill="none" stroke="#2c2891"></use><use xlink:href="#bbburst-shape-2" width="26.46879981708631" opacity="0.4388622422662505" transform="matrix(0.9948635259028786,-0.10122531713011539,0.10122531713011539,0.9948635259028786,518.1109579701688,-181.68352624355458)" fill="#2c2891" filter="url(#bbburst-blur-2)"></use><use xlink:href="#bbburst-shape-1" width="14.057851732651836" opacity="0.875985421048003" transform="matrix(0.8647052621535258,-0.5022796129687152,0.5022796129687152,0.8647052621535258,159.26848398537177,102.10790506904817)" fill="#ffa6d5"></use><use xlink:href="#bbburst-shape-6" width="32.3159375262082" opacity="0.52099961268173" transform="matrix(0.9841739785814361,0.17720490930893254,-0.17720490930893254,0.9841739785814361,663.6552103462267,57.47114716335949)" fill="#00a19d" filter="url(#bbburst-blur-2)"></use><use xlink:href="#bbburst-shape-9" width="39.12660001865611" opacity="-0.10345599449237963" transform="matrix(1.494265121466308,-0.910863187734184,0.910863187734184,1.494265121466308,-347.0243459980112,168.73582864275534)" fill="none" stroke="#ffa6d5" filter="url(#bbburst-blur-4)"></use><use xlink:href="#bbburst-shape-13" width="10.676941310053017" opacity="0.9811981352377128" transform="matrix(0.9539801316133731,-0.29986981923316525,0.29986981923316525,0.9539801316133731,282.7513540496627,16.71187325564307)" fill="none" stroke="#2c2891"></use><use xlink:href="#bbburst-shape-13" width="42.7193742030003" opacity="-0.08600217585760594" transform="matrix(1.7467692308335003,-0.10628854224864272,0.10628854224864272,1.7467692308335003,673.4486882478009,41.23955062563789)" fill="none" stroke="#ffa6d5" filter="url(#bbburst-blur-4)"></use><use xlink:href="#bbburst-shape-9" width="33.66830177565829" opacity="0.34818293614679985" transform="matrix(0.9609857440107661,0.27659790275429474,-0.27659790275429474,0.9609857440107661,341.35035312556516,-239.41448887174215)" fill="none" stroke="#00a19d" filter="url(#bbburst-blur-2)"></use><use xlink:href="#bbburst-shape-3" width="24.99496371278665" opacity="0.5960326529855372" transform="matrix(0.9661014269311681,-0.25816280305567035,0.25816280305567035,0.9661014269311681,131.67006346214532,-81.5148076414024)" fill="#ff5c58" filter="url(#bbburst-blur-1)"></use><use xlink:href="#bbburst-shape-3" width="32.09383423242625" opacity="0.05705746651130594" transform="matrix(1.7060414777433541,-0.38977233896118413,0.38977233896118413,1.7060414777433541,-30.353637060491394,-621.2396767111588)" fill="#ff5c58" filter="url(#bbburst-blur-4)"></use><use xlink:href="#bbburst-shape-6" width="39.08060690429764" opacity="-0.09715118051414162" transform="matrix(1.2720494437601908,-1.2018278631440482,1.2018278631440482,1.2720494437601908,-453.0073577799018,-436.12920690346715)" fill="#00a19d" filter="url(#bbburst-blur-4)"></use><use xlink:href="#bbburst-shape-13" width="16.93088665001687" opacity="0.7152541447135558" transform="matrix(0.7835448049982274,-0.6213352867496661,0.6213352867496661,0.7835448049982274,94.08327095335954,209.49919056054046)" fill="none" stroke="#ffbd9b" filter="url(#bbburst-blur-1)"></use><use xlink:href="#bbburst-shape-1" width="21.128961596377213" opacity="0.6842422138745565" transform="matrix(0.8257509613743307,-0.5640348834862686,0.5640348834862686,0.8257509613743307,300.68006829252954,120.00045830270977)" fill="#ff5c58" filter="url(#bbburst-blur-1)"></use><use xlink:href="#bbburst-shape-6" width="30.57033422034487" opacity="0.2573201241956614" transform="matrix(1.0149468150512366,-0.7296457788662598,0.7296457788662598,1.0149468150512366,-12.36846866909815,-312.1098587491872)" fill="#ffa6d5" filter="url(#bbburst-blur-3)"></use><use xlink:href="#bbburst-shape-13" width="12.628693544784944" opacity="0.8629967395020661" transform="matrix(0.931799145550652,0.36297431362435945,-0.36297431362435945,0.931799145550652,588.9683125991203,-11.543236081196596)" fill="none" stroke="#ffa6d5"></use><use xlink:href="#bbburst-shape-2" width="20.98726201016615" opacity="0.17951840552692555" transform="matrix(0.9579440358053415,-0.8030213099694021,0.8030213099694021,0.9579440358053415,51.92870614698444,394.09258244340595)" fill="#ffa6d5" filter="url(#bbburst-blur-3)"></use><use xlink:href="#bbburst-shape-9" width="16.70854790054157" opacity="0.6927194962743332" transform="matrix(0.7136580512806179,0.7004942439751742,-0.7004942439751742,0.7136580512806179,782.352318741624,194.9069590953958)" fill="none" stroke="#ffa6d5" filter="url(#bbburst-blur-1)"></use><use xlink:href="#bbburst-shape-2" width="25.69524440373195" opacity="0.5618123824232202" transform="matrix(0.9962618243517641,0.08638505275390362,-0.08638505275390362,0.9962618243517641,582.1885811021584,-114.24122210668736)" fill="#00a19d" filter="url(#bbburst-blur-1)"></use><use xlink:href="#bbburst-shape-13" width="16.223895138971972" opacity="0.6656823177281181" transform="matrix(0.9996168436626475,0.027679701333761794,-0.027679701333761794,0.9996168436626475,553.3735163020301,3.0546645759008015)" fill="none" stroke="#2c2891" filter="url(#bbburst-blur-1)"></use><use xlink:href="#bbburst-shape-13" width="19.806178753934713" opacity="0.6860170535531529" transform="matrix(0.9549116224962797,-0.2968902039837666,0.2968902039837666,0.9549116224962797,357.9081321450748,-91.03669946682555)" fill="none" stroke="#ffa6d5" filter="url(#bbburst-blur-1)"></use><use xlink:href="#bbburst-shape-13" width="12.73068330394122" opacity="0.7816801120006606" transform="matrix(0.7745482198650074,-0.63251486552013,0.63251486552013,0.7745482198650074,89.16833481549861,11.4183335630687)" fill="none" stroke="#2c2891"></use><use xlink:href="#bbburst-shape-6" width="32.48209194769598" opacity="0.2729100106488195" transform="matrix(1.021869940174204,-0.7199179296061244,0.7199179296061244,1.021869940174204,26.09178938612473,322.70216085301195)" fill="#ffa6d5" filter="url(#bbburst-blur-3)"></use><use xlink:href="#bbburst-shape-9" width="25.290530152524028" opacity="0.3146311820838251" transform="matrix(1.0724091942659675,0.6422137650765657,-0.6422137650765657,1.0724091942659675,337.7040647924281,3.3471064400214914)" fill="none" stroke="#2c2891" filter="url(#bbburst-blur-3)"></use><use xlink:href="#bbburst-shape-2" width="21.588881789730447" opacity="0.6375273359653716" transform="matrix(0.7294931938306035,0.6839880701845797,-0.6839880701845797,0.7294931938306035,573.3552524713714,235.27343979686628)" fill="#ffa6d5" filter="url(#bbburst-blur-1)"></use><use xlink:href="#bbburst-shape-9" width="41.335817583248506" opacity="0.04424169112437604" transform="matrix(1.722846877501584,0.3070808308622376,-0.3070808308622376,1.722846877501584,138.10315244165432,-547.028957831518)" fill="none" stroke="#2c2891" filter="url(#bbburst-blur-4)"></use><use xlink:href="#bbburst-shape-9" width="20.977535807495478" opacity="0.573893710910665" transform="matrix(0.9256319174049462,-0.37842509626244775,0.37842509626244775,0.9256319174049462,342.12565853776243,-127.98496488610994)" fill="none" stroke="#00a19d" filter="url(#bbburst-blur-1)"></use><use xlink:href="#bbburst-shape-9" width="22.35697193200697" opacity="0.5315900027051166" transform="matrix(0.9163580612837791,-0.40035971765430384,0.40035971765430384,0.9163580612837791,93.51972262953689,198.8072891123261)" fill="none" stroke="#ffa6d5" filter="url(#bbburst-blur-2)"></use><use xlink:href="#bbburst-shape-2" width="33.761263137571376" opacity="0.19729601628590154" transform="matrix(1.2013557549323748,0.34531775235406537,-0.34531775235406537,1.2013557549323748,596.4707463050884,266.203940626366)" fill="#ffbd9b" filter="url(#bbburst-blur-3)"></use><use xlink:href="#bbburst-shape-2" width="32.53013078816049" opacity="0.44750344326426783" transform="matrix(0.9932344320507736,-0.11612649563634175,0.11612649563634175,0.9932344320507736,88.87165573777101,-2.3974371066974527)" fill="#ff5c58" filter="url(#bbburst-blur-2)"></use><use xlink:href="#bbburst-shape-1" width="26.947525181844423" opacity="0.2915792992930062" transform="matrix(0.9408335519861686,0.8230019607856893,-0.8230019607856893,0.9408335519861686,1029.4960417776174,-47.865944750238384)" fill="#ffa6d5" filter="url(#bbburst-blur-3)"></use><use xlink:href="#bbburst-shape-9" width="8.250102361669427" opacity="0.9065593398700335" transform="matrix(0.9806040165365776,-0.1959993947754212,0.1959993947754212,0.9806040165365776,282.5788707317032,-14.843106786747796)" fill="none" stroke="#2c2891"></use><use xlink:href="#bbburst-shape-1" width="10.119142619722632" opacity="0.8510766254923452" transform="matrix(0.9942971711537013,-0.10664490346822597,0.10664490346822597,0.9942971711537013,287.81396627359567,21.02676243257565)" fill="#ffa6d5"></use><use xlink:href="#bbburst-shape-13" width="24.42622219875289" opacity="0.5229914550830416" transform="matrix(0.7827591658346265,-0.622324745050267,0.622324745050267,0.7827591658346265,155.72167239317673,308.6797300687465)" fill="none" stroke="#ff5c58" filter="url(#bbburst-blur-2)"></use><use xlink:href="#bbburst-shape-2" width="9.183419295284576" opacity="0.9609798362394502" transform="matrix(0.8441992935027504,0.5360294328201178,-0.5360294328201178,0.8441992935027504,593.9078590448676,54.21252461426536)" fill="#ffa6d5"></use><use xlink:href="#bbburst-shape-3" width="14.68129518339762" opacity="0.7478151569080724" transform="matrix(0.7182886227159094,-0.695745251134984,0.695745251134984,0.7182886227159094,105.32823149183918,230.77363311513284)" fill="#ffa6d5" filter="url(#bbburst-blur-1)"></use><use xlink:href="#bbburst-shape-2" width="16.292828489632278" opacity="0.7762452292138053" transform="matrix(0.7983898351474243,-0.6021409063776257,0.6021409063776257,0.7983898351474243,252.66290644703702,97.16360262835508)" fill="#2c2891" filter="url(#bbburst-blur-1)"></use><use xlink:href="#bbburst-shape-6" width="25.616431384938554" opacity="0.13811411819284813" transform="matrix(1.1339706833184295,-0.5259377238555286,0.5259377238555286,1.1339706833184295,-191.03916264985116,81.08585072257233)" fill="#00a19d" filter="url(#bbburst-blur-3)"></use><use xlink:href="#bbburst-shape-6" width="14.02929524638641" opacity="0.7693082060339256" transform="matrix(0.8689597106864194,0.4948828358346795,-0.4948828358346795,0.8689597106864194,489.79668257332514,67.9278246339353)" fill="#ffa6d5" filter="url(#bbburst-blur-1)"></use><use xlink:href="#bbburst-shape-9" width="11.74446627608212" opacity="0.9446984124592805" transform="matrix(0.834178892232959,-0.5514939489722379,0.5514939489722379,0.834178892232959,166.45507753593876,93.06393513141569)" fill="none" stroke="#2c2891"></use><use xlink:href="#bbburst-shape-2" width="23.272263246704373" opacity="0.5702217652004129" transform="matrix(0.9454742958981553,0.32569672364929836,-0.32569672364929836,0.9454742958981553,588.1684965678385,198.74420790910472)" fill="#00a19d" filter="url(#bbburst-blur-1)"></use><use xlink:href="#bbburst-shape-1" width="34.57269372171319" opacity="0.39450412871650875" transform="matrix(0.728406880485717,-0.685144814226209,0.685144814226209,0.728406880485717,-92.13707243231119,-58.38296055305668)" fill="#00a19d" filter="url(#bbburst-blur-2)"></use><use xlink:href="#bbburst-shape-2" width="10.449373635485868" opacity="0.8693938480311635" transform="matrix(0.9984661448851052,0.05536567093674597,-0.05536567093674597,0.9984661448851052,359.4438542587219,-11.904150523249143)" fill="#2c2891"></use><use xlink:href="#bbburst-shape-9" width="16.93123683171377" opacity="0.8095115213225427" transform="matrix(0.9999977028827272,-0.0021434153281513677,0.0021434153281513677,0.9999977028827272,410.6803231308987,83.25807091168576)" fill="none" stroke="#ffa6d5"></use><use xlink:href="#bbburst-shape-2" width="33.34194302207235" opacity="0.11517953417735194" transform="matrix(1.2499915294409767,0.004601774202201834,-0.004601774202201834,1.2499915294409767,546.7806074704813,261.96452400885494)" fill="#ff5c58" filter="url(#bbburst-blur-3)"></use><use xlink:href="#bbburst-shape-9" width="30.421196948849385" opacity="0.44194737771858383" transform="matrix(0.9999951918790169,0.003101002877834354,-0.003101002877834354,0.9999951918790169,345.1241416617982,247.51928587050327)" fill="none" stroke="#00a19d" filter="url(#bbburst-blur-2)"></use><use xlink:href="#bbburst-shape-2" width="13.148576705217469" opacity="0.7947040076177149" transform="matrix(0.9991686168655423,0.040768554929003116,-0.040768554929003116,0.9991686168655423,318.6701900225206,-15.461104302941294)" fill="#2c2891"></use><use xlink:href="#bbburst-shape-2" width="21.31015526750037" opacity="0.5228456948170983" transform="matrix(0.9951614053478693,-0.09825363762250121,0.09825363762250121,0.9951614053478693,201.11465009033031,-151.63225029108455)" fill="#2c2891" filter="url(#bbburst-blur-2)"></use><use xlink:href="#bbburst-shape-3" width="13.213510004787882" opacity="0.8596580817633035" transform="matrix(0.9351907177927591,0.3541444921981196,-0.3541444921981196,0.9351907177927591,555.6352139348515,-36.26902409435695)" fill="#ffbd9b"></use><use xlink:href="#bbburst-shape-13" width="18.61782021601531" opacity="0.5225501903492358" transform="matrix(0.820242902582631,0.5720153675932322,-0.5720153675932322,0.820242902582631,440.77147624207896,183.27299465544138)" fill="none" stroke="#2c2891" filter="url(#bbburst-blur-2)"></use><use xlink:href="#bbburst-shape-9" width="26.934000282506446" opacity="0.46527650618302707" transform="matrix(0.9652299951679181,-0.2614020972145038,0.2614020972145038,0.9652299951679181,479.5055454616867,155.265000067955)" fill="none" stroke="#2c2891" filter="url(#bbburst-blur-2)"></use><use xlink:href="#bbburst-shape-2" width="27.591887664449995" opacity="0.027464777887859948" transform="matrix(1.4062363823085116,1.0416329665826969,-1.0416329665826969,1.4062363823085116,552.9821356919931,186.29162697261268)" fill="#ff5c58" filter="url(#bbburst-blur-4)"></use><use xlink:href="#bbburst-shape-6" width="37.05828892406283" opacity="0.3019716732545742" transform="matrix(1.1997364106638075,0.35090247210232617,-0.35090247210232617,1.1997364106638075,667.8599654908588,-362.52633990448317)" fill="#00a19d" filter="url(#bbburst-blur-3)"></use><use xlink:href="#bbburst-shape-6" width="16.945109802701598" opacity="0.6984925252391125" transform="matrix(0.9846781304904366,-0.1743817058462806,0.1743817058462806,0.9846781304904366,434.4553336540336,-68.1626973558898)" fill="#2c2891" filter="url(#bbburst-blur-1)"></use><use xlink:href="#bbburst-shape-6" width="12.860112027264718" opacity="0.8432857998467529" transform="matrix(0.9999918261160511,0.004043229041930557,-0.004043229041930557,0.9999918261160511,464.77954461345996,-11.432457061244804)" fill="#00a19d"></use><use xlink:href="#bbburst-shape-13" width="17.700915370863637" opacity="0.7113702230254486" transform="matrix(0.9966332161303957,0.08198922188668499,-0.08198922188668499,0.9966332161303957,305.77191143687537,-53.20939074782882)" fill="none" stroke="#ffa6d5" filter="url(#bbburst-blur-1)"></use><use xlink:href="#bbburst-shape-2" width="31.152973370839227" opacity="0.45484948500141476" transform="matrix(0.9978136566250329,-0.06609014035830961,0.06609014035830961,0.9978136566250329,134.90516587342907,-100.05793090241383)" fill="#ffbd9b" filter="url(#bbburst-blur-2)"></use><use xlink:href="#bbburst-shape-9" width="26.680269644616917" opacity="0.45849455886473955" transform="matrix(0.7215046130657338,0.6924096282727918,-0.6924096282727918,0.7215046130657338,755.7649816991482,-125.08413378227982)" fill="none" stroke="#2c2891" filter="url(#bbburst-blur-2)"></use><use xlink:href="#bbburst-shape-2" width="12.96577953549665" opacity="0.9277218322236022" transform="matrix(0.9893423938543408,-0.14560778730055104,0.14560778730055104,0.9893423938543408,357.9532371043234,28.595309731054954)" fill="#ffa6d5"></use><use xlink:href="#bbburst-shape-13" width="24.86289871145398" opacity="0.39562604930892364" transform="matrix(0.9763381773772217,-0.2162493084283156,0.2162493084283156,0.9763381773772217,73.62726637256394,160.82443632097096)" fill="none" stroke="#2c2891" filter="url(#bbburst-blur-2)"></use><use xlink:href="#bbburst-shape-2" width="33.54522419817199" opacity="0.3779076352010313" transform="matrix(0.9760936609298905,0.21735032802479043,-0.21735032802479043,0.9760936609298905,423.3653341587708,-270.00033746911214)" fill="#ff5c58" filter="url(#bbburst-blur-2)"></use><use xlink:href="#bbburst-shape-6" width="13.217792518509118" opacity="0.8630067315435743" transform="matrix(0.9958236004602746,-0.09129817504383787,0.09129817504383787,0.9958236004602746,414.448570620516,24.374932707357516)" fill="#00a19d"></use><use xlink:href="#bbburst-shape-6" width="34.5679581484735" opacity="0.2689550902046627" transform="matrix(1.1366357125248716,-0.5201531092025475,0.5201531092025475,1.1366357125248716,343.9490841123626,234.97096614388715)" fill="#ff5c58" filter="url(#bbburst-blur-3)"></use><use xlink:href="#bbburst-shape-2" width="30.4726202320582" opacity="0.3782045876593826" transform="matrix(0.92206824571317,0.3870273249364146,-0.3870273249364146,0.92206824571317,787.9848586136573,-105.74590114722679)" fill="#ffa6d5" filter="url(#bbburst-blur-2)"></use><use xlink:href="#bbburst-shape-6" width="16.682765889930835" opacity="0.6826825189225623" transform="matrix(0.7612119618299878,-0.6485031604910967,0.6485031604910967,0.7612119618299878,34.175296002729226,-0.9329661573653993)" fill="#ffa6d5" filter="url(#bbburst-blur-1)"></use><use xlink:href="#bbburst-shape-6" width="21.12923892753517" opacity="0.6955023728203791" transform="matrix(0.7221125104231673,0.6917756300205662,-0.6917756300205662,0.7221125104231673,532.6345487963902,91.28291131597933)" fill="#00a19d" filter="url(#bbburst-blur-1)"></use><use xlink:href="#bbburst-shape-13" width="35.247446644015696" opacity="0.39904064861325894" transform="matrix(0.9295373229472172,-0.36872803697050327,0.36872803697050327,0.9295373229472172,320.6363428654701,291.57145808126995)" fill="none" stroke="#ffa6d5" filter="url(#bbburst-blur-2)"></use><use xlink:href="#bbburst-shape-3" width="15.498560837003199" opacity="0.8329388229759819" transform="matrix(0.9449744269381668,0.32714420739619293,-0.32714420739619293,0.9449744269381668,508.6537408987157,93.15699918619669)" fill="#00a19d"></use><use xlink:href="#bbburst-shape-9" width="27.285074141563758" opacity="0.5928302867012142" transform="matrix(0.9999816701807387,-0.006054692604939442,0.006054692604939442,0.9999816701807387,544.4550965825654,88.25254435985403)" fill="none" stroke="#ffa6d5" filter="url(#bbburst-blur-1)"></use><use xlink:href="#bbburst-shape-13" width="37.83617061908392" opacity="0.34636407675029635" transform="matrix(0.7518209325978993,0.6593673371555684,-0.6593673371555684,0.7518209325978993,667.7522524813093,380.3684445378243)" fill="none" stroke="#00a19d" filter="url(#bbburst-blur-2)"></use><use xlink:href="#bbburst-shape-9" width="35.89243092509968" opacity="0.04534589793708288" transform="matrix(1.4830237439419356,0.9290535909754852,-0.9290535909754852,1.4830237439419356,1002.8748722344683,133.5191513411222)" fill="none" stroke="#ffa6d5" filter="url(#bbburst-blur-4)"></use><use xlink:href="#bbburst-shape-6" width="13.88979272925291" opacity="0.8618813798193561" transform="matrix(0.8352460370913019,0.5498764020425642,-0.5498764020425642,0.8352460370913019,577.0865148269556,12.189424096541075)" fill="#ffa6d5"></use><use xlink:href="#bbburst-shape-13" width="24.74349382410496" opacity="0.2511239870105152" transform="matrix(1.2475191463736963,0.07871454396135733,-0.07871454396135733,1.2475191463736963,157.9585579338493,116.7048245014721)" fill="none" stroke="#ffa6d5" filter="url(#bbburst-blur-3)"></use><use xlink:href="#bbburst-shape-2" width="29.162216976349907" opacity="0.19284747869988117" transform="matrix(1.1877806872216128,0.38945736488523797,-0.38945736488523797,1.1877806872216128,179.19287509339313,-134.21784552200228)" fill="#00a19d" filter="url(#bbburst-blur-3)"></use><use xlink:href="#bbburst-shape-6" width="25.701022530372704" opacity="0.5030484077825229" transform="matrix(0.8087075922083189,-0.5882108723107925,0.5882108723107925,0.8087075922083189,85.77286458752042,-128.7863628871244)" fill="#ff5c58" filter="url(#bbburst-blur-2)"></use><use xlink:href="#bbburst-shape-2" width="41.3244261553095" opacity="0.07696317572765121" transform="matrix(1.5266631923976763,0.8554528023088916,-0.8554528023088916,1.5266631923976763,965.1965218710334,-556.5158341228802)" fill="#ffbd9b" filter="url(#bbburst-blur-4)"></use><use xlink:href="#bbburst-shape-13" width="14.699209723288032" opacity="0.7155345238220774" transform="matrix(0.9391933166833585,0.34338886688026565,-0.34338886688026565,0.9391933166833585,567.0169028216413,144.4752780877684)" fill="none" stroke="#00a19d" filter="url(#bbburst-blur-1)"></use><use xlink:href="#bbburst-shape-13" width="19.49401876229601" opacity="0.6114965835289587" transform="matrix(0.9160917871381757,-0.4009686241315938,0.4009686241315938,0.9160917871381757,189.85189576373082,207.46301408841214)" fill="none" stroke="#2c2891" filter="url(#bbburst-blur-1)"></use><use xlink:href="#bbburst-shape-9" width="26.788978699220753" opacity="0.4498704440018204" transform="matrix(0.9750978709926545,-0.22177498052213282,0.22177498052213282,0.9750978709926545,437.8901523723467,217.12925763020422)" fill="none" stroke="#ff5c58" filter="url(#bbburst-blur-2)"></use><use xlink:href="#bbburst-shape-6" width="31.055564949012847" opacity="0.5044673727535438" transform="matrix(0.9820603957183736,-0.1885666438198218,0.1885666438198218,0.9820603957183736,313.87076466382814,-212.8391299520108)" fill="#00a19d" filter="url(#bbburst-blur-2)"></use><use xlink:href="#bbburst-shape-6" width="33.90789800097231" opacity="0.06842689795364121" transform="matrix(1.5569899066865522,0.798925797853719,-0.798925797853719,1.5569899066865522,1055.8420346389166,-26.087262545827457)" fill="#ffbd9b" filter="url(#bbburst-blur-4)"></use><use xlink:href="#bbburst-shape-3" width="17.34188141094" opacity="0.6999031258374491" transform="matrix(0.987093512699425,0.1601449255727766,-0.1601449255727766,0.987093512699425,492.565081744737,-126.07507049044642)" fill="#2c2891" filter="url(#bbburst-blur-1)"></use><use xlink:href="#bbburst-shape-2" width="30.295307510924147" opacity="0.3614040665213406" transform="matrix(0.9063524979989105,0.4225223655277139,-0.4225223655277139,0.9063524979989105,437.2397572133953,293.08124894986713)" fill="#ffbd9b" filter="url(#bbburst-blur-2)"></use><use xlink:href="#bbburst-shape-13" width="28.05034926731725" opacity="0.6347773402128722" transform="matrix(0.7243185599249051,0.6894654623317339,-0.6894654623317339,0.7243185599249051,822.0584355097196,50.20081346239073)" fill="none" stroke="#ff5c58" filter="url(#bbburst-blur-1)"></use><use xlink:href="#bbburst-shape-9" width="15.69668508959356" opacity="0.797142805956956" transform="matrix(0.999412348356383,-0.03427765967477564,0.03427765967477564,0.999412348356383,330.55853038117704,78.11770709562973)" fill="none" stroke="#ffbd9b"></use><use xlink:href="#bbburst-shape-9" width="43.32192776624176" opacity="0.1884954578097876" transform="matrix(0.9535953921741779,-0.8081805664727258,0.8081805664727258,0.9535953921741779,403.5019611909639,147.51509639458118)" fill="none" stroke="#00a19d" filter="url(#bbburst-blur-3)"></use><use xlink:href="#bbburst-shape-2" width="25.655314790615773" opacity="0.1377827967325448" transform="matrix(0.9326017794427994,0.8323184012024027,-0.8323184012024027,0.9326017794427994,583.3155783231948,379.05910191952654)" fill="#ffa6d5" filter="url(#bbburst-blur-3)"></use><use xlink:href="#bbburst-shape-2" width="20.823494980005428" opacity="0.7586550959871138" transform="matrix(0.8616175366714969,-0.5075580956896873,0.5075580956896873,0.8616175366714969,292.25276804937823,30.170808194405083)" fill="#ff5c58" filter="url(#bbburst-blur-1)"></use><use xlink:href="#bbburst-shape-3" width="15.316005866120197" opacity="0.7248695325322358" transform="matrix(0.9981711775974588,0.06045080821380605,-0.06045080821380605,0.9981711775974588,328.53722126724983,87.4144756923036)" fill="#ffa6d5" filter="url(#bbburst-blur-1)"></use><use xlink:href="#bbburst-shape-3" width="44.202007013642465" opacity="0.2578618246082738" transform="matrix(1.2296223233322263,-0.2247864363413812,0.2247864363413812,1.2296223233322263,524.3241921171053,-317.3847489767618)" fill="#00a19d" filter="url(#bbburst-blur-3)"></use><use xlink:href="#bbburst-shape-13" width="17.36748002948782" opacity="0.6668217350760397" transform="matrix(0.7679556541215318,-0.6405030158420569,0.6405030158420569,0.7679556541215318,217.9033554232962,224.69180085850485)" fill="none" stroke="#ffa6d5" filter="url(#bbburst-blur-1)"></use><use xlink:href="#bbburst-shape-9" width="13.263235710414477" opacity="0.7856292888822424" transform="matrix(0.9999541418592975,0.009576751977355611,-0.009576751977355611,0.9999541418592975,480.62278318507475,48.306439213018905)" fill="none" stroke="#2c2891"></use><use xlink:href="#bbburst-shape-9" width="28.734804691813423" opacity="0.5135102339977186" transform="matrix(0.9254766814448395,0.378804583000057,-0.378804583000057,0.9254766814448395,449.5252733388272,224.30120924125208)" fill="none" stroke="#2c2891" filter="url(#bbburst-blur-2)"></use><use xlink:href="#bbburst-shape-6" width="12.903313864772619" opacity="0.8352988318530974" transform="matrix(0.9890424847934233,-0.14763117310937757,0.14763117310937757,0.9890424847934233,322.2772900207468,-67.75394033137366)" fill="#ffbd9b"></use><use xlink:href="#bbburst-shape-9" width="38.467978807234" opacity="0.23040847842921253" transform="matrix(1.035200168241743,0.7006144529427483,-0.7006144529427483,1.035200168241743,469.92756904460794,261.33118535455276)" fill="none" stroke="#2c2891" filter="url(#bbburst-blur-3)"></use><use xlink:href="#bbburst-shape-9" width="20.190136334782462" opacity="0.7544194513489955" transform="matrix(0.736977564149824,-0.6759172064238284,0.6759172064238284,0.736977564149824,113.71770296558805,1.7393020048629069)" fill="none" stroke="#2c2891" filter="url(#bbburst-blur-1)"></use><use xlink:href="#bbburst-shape-9" width="12.000827286364366" opacity="0.8065240795186687" transform="matrix(0.8730536324322433,-0.4876241943309062,0.4876241943309062,0.8730536324322433,127.87574171566587,102.88257891422813)" fill="none" stroke="#ffa6d5"></use><use xlink:href="#bbburst-shape-6" width="25.771639777290964" opacity="0.17829627445370266" transform="matrix(1.0364352483520058,0.6987860731107309,-0.6987860731107309,1.0364352483520058,297.8745298281945,9.49740547544178)" fill="#ffa6d5" filter="url(#bbburst-blur-3)"></use><use xlink:href="#bbburst-shape-13" width="27.11922314293581" opacity="0.538045255628872" transform="matrix(0.7205334096728979,-0.6934202229133124,0.6934202229133124,0.7205334096728979,320.5570600246256,112.43656279221432)" fill="none" stroke="#2c2891" filter="url(#bbburst-blur-2)"></use><use xlink:href="#bbburst-shape-2" width="32.653237170144614" opacity="0.1925159592041541" transform="matrix(1.2489669529687424,0.050808959760808306,-0.050808959760808306,1.2489669529687424,717.7567500067166,-276.5297825378507)" fill="#2c2891" filter="url(#bbburst-blur-3)"></use><use xlink:href="#bbburst-shape-13" width="22.075357182425215" opacity="0.5475747302198372" transform="matrix(0.999132316900764,-0.04164868934926276,0.04164868934926276,0.999132316900764,175.63523074324223,53.41416162190785)" fill="none" stroke="#ffa6d5" filter="url(#bbburst-blur-2)"></use><use xlink:href="#bbburst-shape-13" width="38.75634277814645" opacity="0.21395533908719855" transform="matrix(1.1869942906280848,0.3918476158104448,-0.3918476158104448,1.1869942906280848,286.361302810928,-335.2210324621058)" fill="none" stroke="#2c2891" filter="url(#bbburst-blur-3)"></use><use xlink:href="#bbburst-shape-1" width="18.231126274436804" opacity="0.7701492622320116" transform="matrix(0.9923648757494624,-0.12333674788461889,0.12333674788461889,0.9923648757494624,402.6356812447246,87.7223768142083)" fill="#2c2891" filter="url(#bbburst-blur-1)"></use><use xlink:href="#bbburst-shape-9" width="28.633521404605617" opacity="0.1083399425325201" transform="matrix(1.6536264342025424,0.5727299678789162,-0.5727299678789162,1.6536264342025424,779.9425335259625,-631.3261706501746)" fill="none" stroke="#00a19d" filter="url(#bbburst-blur-4)"></use><use xlink:href="#bbburst-shape-13" width="19.6513852480651" opacity="0.7200443316981744" transform="matrix(0.8484327122191155,0.5293032522444158,-0.5293032522444158,0.8484327122191155,489.7411925108478,109.79608512412341)" fill="none" stroke="#2c2891" filter="url(#bbburst-blur-1)"></use><use xlink:href="#bbburst-shape-2" width="24.158280532896697" opacity="0.6322251181074124" transform="matrix(0.9962379308478224,0.0866601704363045,-0.0866601704363045,0.9962379308478224,285.6048122374255,93.28239130344963)" fill="#00a19d" filter="url(#bbburst-blur-1)"></use><use xlink:href="#bbburst-shape-13" width="13.205591709404" opacity="0.9167342725059919" transform="matrix(0.9969079013747417,-0.07857885324060353,0.07857885324060353,0.9969079013747417,399.31191932629554,-1.523133234154102)" fill="none" stroke="#00a19d"></use><use xlink:href="#bbburst-shape-1" width="17.79976571918593" opacity="0.6890065984453377" transform="matrix(0.9989330119960039,0.04618265415273787,-0.04618265415273787,0.9989330119960039,349.81804103818837,-126.5057298361686)" fill="#ffa6d5" filter="url(#bbburst-blur-1)"></use><use xlink:href="#bbburst-shape-13" width="38.84683899173808" opacity="0.10065174905322549" transform="matrix(1.3403542730728004,-1.1251446229954105,1.1251446229954105,1.3403542730728004,-359.94020819127076,174.18732403631998)" fill="none" stroke="#00a19d" filter="url(#bbburst-blur-4)"></use><use xlink:href="#bbburst-shape-9" width="43.43046282196232" opacity="-0.10025114567626803" transform="matrix(1.6371154459139885,-0.6183470035100377,0.6183470035100377,1.6371154459139885,462.1476450033763,-596.8085434262521)" fill="none" stroke="#00a19d" filter="url(#bbburst-blur-4)"></use><use xlink:href="#bbburst-shape-2" width="18.819687602474005" opacity="0.5769660859872475" transform="matrix(0.9902661255526518,0.13918692676735017,-0.13918692676735017,0.9902661255526518,256.1155752932343,-4.321958691752343)" fill="#ffa6d5" filter="url(#bbburst-blur-1)"></use><use xlink:href="#bbburst-shape-1" width="38.39912101504075" opacity="0.03264499552801281" transform="matrix(1.680055061117447,-0.48981117955152026,0.48981117955152026,1.680055061117447,524.9115847387682,-517.1667901038658)" fill="#2c2891" filter="url(#bbburst-blur-4)"></use><use xlink:href="#bbburst-shape-6" width="25.631875779840975" opacity="0.1393745959811522" transform="matrix(1.178109115286071,-0.4178024802222591,0.4178024802222591,1.178109115286071,587.545085477512,-181.04556882434133)" fill="#ffa6d5" filter="url(#bbburst-blur-3)"></use><use xlink:href="#bbburst-shape-9" width="28.611308400623116" opacity="0.12337927713521968" transform="matrix(1.2325536708961196,-0.2081140273035435,0.2081140273035435,1.2325536708961196,143.16057282613764,-452.6388573845905)" fill="none" stroke="#2c2891" filter="url(#bbburst-blur-3)"></use><use xlink:href="#bbburst-shape-9" width="20.230308489724706" opacity="0.6568009873596035" transform="matrix(0.884311565409878,0.4668972641623971,-0.4668972641623971,0.884311565409878,427.16603013542624,75.16020285687807)" fill="none" stroke="#00a19d" filter="url(#bbburst-blur-1)"></use><use xlink:href="#bbburst-shape-2" width="29.246270858291798" opacity="0.328557850199764" transform="matrix(0.9857531133767037,-0.7686291690198439,0.7686291690198439,0.9857531133767037,299.2770340238666,222.85244272765976)" fill="#ffa6d5" filter="url(#bbburst-blur-3)"></use><use xlink:href="#bbburst-shape-2" width="30.68479549772196" opacity="0.254913215782289" transform="matrix(1.2498254919692382,-0.020886350180245126,0.020886350180245126,1.2498254919692382,70.85378388407013,46.85455919822084)" fill="#2c2891" filter="url(#bbburst-blur-3)"></use><use xlink:href="#bbburst-shape-9" width="35.41912373552167" opacity="0.3569490379217245" transform="matrix(0.976168607412585,-0.2170134786186666,0.2170134786186666,0.976168607412585,561.9571366705974,126.83746639368309)" fill="none" stroke="#00a19d" filter="url(#bbburst-blur-2)"></use><use xlink:href="#bbburst-shape-6" width="10.493655410529001" opacity="0.9222848182576404" transform="matrix(0.9193286663300384,-0.39349053770558823,0.39349053770558823,0.9193286663300384,258.34793647169454,6.048970514932989)" fill="#ff5c58"></use><use xlink:href="#bbburst-shape-13" width="30.333953298072117" opacity="0.3504730956916815" transform="matrix(0.9172605185675586,0.39828776164624174,-0.39828776164624174,0.9172605185675586,583.4086256720728,-262.7507077069694)" fill="none" stroke="#2c2891" filter="url(#bbburst-blur-2)"></use></svg>