<svg xmlns="http://www.w3.org/2000/svg" version="1.1" xmlns:xlink="http://www.w3.org/1999/xlink" xmlns:svgjs="http://svgjs.dev/svgjs" viewBox="0 0 800 800"><defs><linearGradient x1="50%" y1="0%" x2="50%" y2="100%" id="wwwhirl-grad"><stop stop-color="hsl(206, 75%, 49%)" stop-opacity="1" offset="45%"></stop><stop stop-color="hsl(331, 90%, 56%)" stop-opacity="1" offset="100%"></stop></linearGradient></defs><g stroke-width="2" stroke="url(#wwwhirl-grad)" fill="none" stroke-linecap="round"><path d="M-2162.5002416263924 555.003746997049C-2065.435844994116 423.96681154347635 -1890.7199310560193 -119.10848761410807 -1696.5911377914672 -73.9735431800997C-1502.4623445269153 -28.83859874609132 -1424.8108272210943 746.9000591390588 -1230.6820339565422 771.6514802802892C-1036.5532406919901 796.4029014215196 -958.9017233861691 79.77646108542555 -764.7729301216173 44.833278297806174C-570.6441368570652 9.890095510186796 -492.99261955124393 622.8517602430101 -298.8638262866921 603.9242028997162C-104.73503302214021 584.9966455564222 -27.083515716319198 -25.63547365722625 167.04527754823266 -46.018996950004194C361.1740708127845 -66.40252024278215 438.825588118606 443.4767552665638 632.9543813831579 506.08329109438193C827.0831746477102 568.6898269222 904.7346919535307 177.32617970086292 1098.863485218083 254.4923750235224C1292.992278482635 331.6585703461819 1370.643795788455 866.2892669967584 1564.7725890530078 876.4810286431473C1758.90138231756 886.6727902895361 1836.5528996233807 371.8432305519442 2030.6816928879334 303.41283092618954C2224.8104861524853 234.98243130043494 2302.4620034583068 604.7977824694067 2496.5907967228577 548.0151104395252C2690.7195899874096 491.2324384096437 2865.435503925507 138.59748544458483 2962.499900557783 30.856005182758423 " transform="rotate(123, 400, 400)"></path><path d="M-2100.0002420598803 551.2233391842518C-2005.303269735709 423.38242654662 -1834.8487195521996 -106.44713360712097 -1645.454774903856 -62.41304147638109C-1456.0608302555127 -18.37894934564121 -1380.3032523961751 738.4392534691394 -1190.909307747832 762.5869814118032C-1001.5153630994882 786.734709354467 -925.7577852401507 87.58696268510695 -736.3638405918075 53.496052648405126C-546.9698959434638 19.40514261170331 -471.2123180841263 617.416522838848 -281.8183734357831 598.9506132356345C-92.42442878743941 580.4847036324209 -16.66685092810212 -15.253949258943571 172.7270937202411 -35.14031344701962C362.1210383685848 -55.02667763509568 437.87861622792207 442.4165179837785 627.2725608762657 503.49606513286926C816.6665055246094 564.5756122819602 892.4240833839467 182.75741987089955 1081.8180280322904 258.04151286861617C1271.2119726806336 333.3256058663327 1346.969550539971 854.9165294278708 1536.3634951883146 864.8597115219087C1725.7574398366578 874.8028936159466 1801.5150176959955 372.5301524085398 1990.9089623443388 305.76878691999866C2180.3029069926833 239.0074214314576 2256.0604848520206 599.8028859865519 2445.4544295003634 544.4051571769115C2634.848374148706 489.007428367271 2805.3029243322153 144.97332791355507 2899.999896656387 39.8596886337244 " transform="rotate(120, 400, 400)"></path><path d="M-2037.500242493369 547.4425651605171C-1945.1706944773014 422.797675338826 -1778.97750804838 -93.78614581107135 -1594.318412016245 -50.85290598359998C-1409.6593159841102 -7.919666156128599 -1335.7956775712562 729.9780815882825 -1151.1365815391214 753.5221163323796C-966.4774855069866 777.0661510764769 -892.6138470941323 95.39709807385086 -707.9547510619975 62.15846078806658C-523.2956550298627 28.9198235022823 -449.43201661700846 611.9809192237483 -264.77292058487365 593.976657360615C-80.11382455273883 575.9723954974818 -6.250186139885045 -4.872791071598407 178.40890989225 -24.261996154972557C363.06800592438503 -43.6512012383467 436.93164433723905 441.3559144900555 621.5907403693736 500.9084729604191C806.2498364015087 560.4610314307827 880.1134748143627 188.18829382999857 1064.7725708464973 261.59028450277225C1249.4316668786323 334.99227517554596 1323.2953052914859 843.5434256480455 1507.9544013236214 853.2380281897324C1692.6134973557564 862.9326307314194 1766.4771357686104 373.2167080541978 1951.1362318007455 308.1243767028702C2135.7953278328805 243.0320453515427 2209.6589662457345 594.8076232927597 2394.318062277869 540.7948377033601C2578.9771583100037 486.78205211396073 2745.1703447389245 151.34880417158774 2837.4998927549923 48.86300587375287 " transform="rotate(117, 400, 400)"></path><path d="M-1975.0002429268573 543.6621573477198C-1885.038119218894 422.21329034196964 -1723.1062965445603 -81.12479180408425 -1543.182049128634 -39.292404279881374C-1363.2578017127078 2.539983244321512 -1291.2881027463372 721.5172759183631 -1111.3638553304108 744.4576174638937C-931.4396079144847 767.3979590094243 -859.4699089481139 103.20759967353226 -679.5456615321878 70.82123513866553C-499.62141411626135 38.4348706037988 -427.65171514989083 606.5456818195862 -247.72746773396443 589.0030676965333C-67.80322031803803 571.4604535734804 4.166478648332031 5.508733326684265 184.09072606425843 -13.383312651987982C364.01497348018484 -32.27535863066023 435.9846724465556 440.29567720727016 615.908919862482 498.32124699890653C795.8331672784084 556.3468167905427 867.8028662447787 193.61953400003523 1047.727113660705 265.13942234786595C1227.6513610766306 336.6593106956967 1299.6210600430018 832.1706880791579 1479.5453074589282 841.6167110684938C1659.4695548748546 851.0627340578299 1731.4392538412253 373.9036299107935 1911.3635012571517 310.4803326966794C2091.2877486730786 247.05703548256537 2163.2574476394484 589.812726809905 2343.181695055375 537.1848844407466C2523.1059424713003 484.55704207158806 2685.037765145634 157.72464664055795 2774.9998888535974 57.866689324718834 " transform="rotate(114, 400, 400)"></path><path d="M-1912.5002433603456 539.8814443591415C-1824.9055439604867 421.628600169332 -1667.2350850407406 -68.4637429728784 -1492.045686241023 -27.73220775194401C-1316.8562874413053 12.999327468990373 -1246.780527921418 713.0561650726625 -1071.5911291217005 735.3928134196265C-896.4017303219828 757.7294617665905 -826.3259708020955 111.01779609743241 -651.136572002378 79.48370431348323C-475.9471732026602 47.94961252953405 -405.87141368277275 601.1101392396429 -230.68201488305522 584.0291728566704C-55.49261608333745 566.9482064736977 14.583143436549335 15.889952549185686 189.77254223626733 -2.5049343247846565C364.9619410359851 -20.899821198755006 435.0377005558721 439.23513474870356 610.2270993555899 495.7337158616125C785.4164981553072 552.2322969745217 855.4922576751951 199.05046899429055 1030.6816564749124 268.6882550171784C1205.8710552746302 338.32604104006623 1275.9468147945167 820.797645334489 1451.136213594235 829.995088771474C1626.3256123939527 839.192532208459 1696.4013719138393 374.5902465916078 1871.5907707135575 312.83598351470727C2046.7801695132757 251.08172043780678 2116.855929033163 584.8175251512691 2292.0453278328805 533.5746260023516C2467.234726632598 482.33172685343413 2624.905185552344 164.1001839337469 2712.4998849522026 66.87006759990356 " transform="rotate(111, 400, 400)"></path><path d="M-1850.0002437938338 536.1008534408754C-1764.7729687020792 421.0440320670068 -1611.363873536921 -55.802572071360046 -1440.9093233534118 -16.171889153694153C-1270.4547731699029 23.458793763971734 -1202.2729530964994 704.5951762972744 -1031.81840291299 726.3281314456717C-861.3638527294809 748.0610865940691 -793.1820326560771 118.82811459164509 -622.727482472568 88.14629555861345C-452.2729322890589 57.4644765255818 -384.0911122156549 595.674718730012 -213.63656203214578 579.0554000871198C-43.18201184863665 562.4360814442276 24.99980822476664 26.271293841999615 195.45435840827577 8.373566072731162C365.9089085917849 -9.524161696537277 434.09072866518864 438.17471436044946 604.5452788486978 493.1463067946312C774.9998290322069 548.1178992288129 843.1816491056106 204.4815260588584 1013.6361992891198 272.23720975680334C1184.0907494726289 339.99289345474824 1252.2725695460326 809.4247246601326 1422.7271197295418 818.3735885447666C1593.1816699130509 827.3224524294008 1661.3634899864542 375.27698534273463 1831.8180401699642 315.19175640304763C2002.2725903534733 255.1065274633607 2070.454410426877 579.8224455629455 2240.9089606103853 529.9644896342692C2411.3635107938944 480.1065337055927 2564.772605959053 170.4758432972484 2649.9998810508077 75.8735679454008 " transform="rotate(108, 400, 400)"></path><path d="M-1787.5002442273221 532.3203235577657C-1704.6403934436719 420.45952499983787 -1555.4926620331014 -43.141340134685436 -1389.772960465801 -4.611509520288045C-1224.0532588985002 33.918321094109345 -1157.7653782715802 696.1342485570424 -992.0456767042796 717.2635105068731C-826.3259751369792 738.392772456704 -760.0380945100587 126.63849412101399 -594.3183929427582 96.8089478388999C-428.59869137545775 66.97940155678579 -362.3108107485373 590.2393592555374 -196.5911091812368 574.0816883527255C-30.8714076139363 557.9240174499135 35.41647301298394 36.65269616996978 201.1361745802842 19.252127505403234C366.8558761475847 1.851558840836688 433.14375677450516 437.1143550073515 598.8634583418057 490.55895876280596C764.5831599091061 544.0035625182604 830.8710405360266 209.91264415858248 996.5907421033271 275.7862255315845C1162.3104436706276 341.65980690458645 1228.5983242975476 798.0518650209323 1394.3180258648486 806.7521493532155C1560.037727432149 815.4524336854986 1626.325608059069 375.9637851290177 1792.04530962637 317.5475903265442C1957.765011193671 259.1313955240708 2024.052891820591 574.8274270097783 2189.772593387891 526.3544143013429C2355.492294955191 477.8814015929075 2504.6400263657615 176.85156369590607 2587.499877149412 84.87712932605424 " transform="rotate(105, 400, 400)"></path><path d="M-1725.0002446608105 528.5397326394998C-1644.5078181852646 419.87495689751273 -1499.6214505292817 -30.480169233167075 -1338.6365975781898 6.948809077961812C-1177.6517446270977 44.37778738909071 -1113.257803446661 687.6732597816542 -952.2729504955691 708.1988285329185C-791.2880975444773 728.7243972841826 -726.8941563640403 134.44881261522664 -565.9093034129485 105.4715390840301C-404.9244504618564 76.49426555283355 -340.5305092814194 584.8039387459065 -179.54565633032757 569.1079155831749C-18.560803379235722 553.4118924204435 45.83313780120102 47.0340374627837 206.81799075229287 30.13062790291906C367.80284370338495 13.227218343054417 432.19678488382215 436.0539346190974 593.181637834914 487.97154969582465C754.1664907860059 539.8891647725519 818.5604319664426 215.34370122315033 979.5452849175344 279.3351802712094C1140.5301378686263 343.3266593192685 1204.9240790490626 786.6789443465759 1365.9089320001553 795.1306491265082C1526.8937849512477 803.5823539064403 1591.287726131684 376.65052388014453 1752.2725790827762 319.9033632148846C1913.2574320338686 263.1562025496247 1977.6513732143053 569.8323474214549 2138.636226165397 522.7442779332605C2299.621079116488 475.65620844506606 2444.5074467724708 183.22722305940752 2524.999873248017 93.88062967155147 " transform="rotate(102, 400, 400)"></path><path d="M-1662.5002450942989 524.759172238812C-1584.3752429268573 419.29041931276566 -1443.7502390254622 -17.818967814070604 -1287.5002346905787 18.5091581937898C-1131.2502303556953 54.8372842016502 -1068.750228621742 679.2123015238442 -912.5002242868587 699.1341770765418C-756.2502199519754 719.0560526292395 -693.7502182180219 142.25916162701742 -537.5002138831385 114.13416084673844C-381.25020954825527 86.00916006645943 -318.7502078143016 579.3685487538538 -162.50020347941813 564.1341733312025C-6.250199144534918 548.8997979085514 56.24980258941832 57.41540927317575 212.49980692430154 41.009158818013006C368.74981125918475 24.602908362850265 431.2498129931382 434.9935447484214 587.4998173280219 485.38417114642135C743.7498216629051 535.7747975444213 806.2498233968586 220.7747888052963 962.4998277317422 282.8841655284125C1118.749832066625 344.99354225152865 1181.2498338005785 775.3060541897976 1337.4998381354617 783.5091794173788C1493.7498424703454 791.7123046449601 1556.2498442042993 377.3372931488495 1712.4998485391825 322.2591666208031C1868.7498528740662 267.1810400927567 1931.2498546080192 564.8372983507096 2087.499858942902 519.1341720827562C2243.749863277785 473.4310458148028 2384.37486717918 189.6029129404871 2462.4998693466223 102.88416053462683 " transform="rotate(99, 400, 400)"></path><path d="M-1600.0000013871622 520.9786118381242C-1524.242423527825 418.70588172801865 -1387.8787833810175 -5.157766394974118 -1236.3636276623427 30.069507309617784C-1084.8484719436678 65.2967810142097 -1024.242409656198 670.7513432660343 -872.7272539375233 690.0695256201652C-721.2120982188485 709.3877079742963 -660.6060359313785 150.06951063880825 -509.0908802127037 122.79678260944677C-357.5757244940289 95.5240545800853 -296.96966220655895 573.9331587618011 -145.45450648788415 559.1604310792302C6.060649230790659 544.3877033966594 66.66671151826063 67.7967810835678 218.1818672369352 51.88768973310695C369.6970229556098 35.97859838264611 430.3030852430802 433.93315487774544 581.8182409617548 482.7967925970181C733.3333966804294 531.6604303162908 793.9394589678996 226.2058763874423 945.4546146865746 286.43315078561557C1096.9697704052487 346.6604251837888 1157.575832692719 763.9331640330194 1309.0909884113935 771.8877097082496C1460.606144130069 779.8422553834799 1521.2122064175383 378.0240624175545 1672.7273621362137 324.61497002672155C1824.2425178548888 271.2058776358888 1884.848580142358 559.8422492799642 2036.363735861033 515.5240662322518C2187.8788915797077 471.20588318453946 2324.2425317265147 195.97860282156668 2400.000109585852 111.88769139770217 " transform="rotate(96, 400, 400)"></path><path d="M-1537.5000018206506 517.1978988495456C-1464.1098482694174 418.1211915553809 -1332.0075718771977 7.503282436231743 -1185.2272647747316 41.62970383755514C-1038.4469576722654 75.75612523887855 -979.734834831279 662.2902324203335 -832.9545277288129 681.0047215758979C-686.1742206263466 699.7192107314625 -627.46209778536 157.87970706270838 -480.68179068289396 131.45925178426444C-333.9014835804278 105.03879650582054 -275.1893607394409 568.4976161818577 -128.4090536369747 554.1865362393671C18.371253465491463 539.8754562968766 77.0833763064777 78.17800030606921 223.86368340894387 62.766068060310275C370.6439905114098 47.35413581455134 429.3561133523965 432.8726124191787 576.1364204548631 480.20926145972413C722.9167275573291 527.5459105002694 781.6288503983155 231.6368113816976 928.4091575007819 289.981983454928C1075.1894646032479 348.3271555281583 1133.9015874442343 752.5601212883503 1280.6818945467003 760.2660874112296C1427.4622016491667 767.972053534109 1486.1743244901531 378.7106790983688 1632.9546315926195 326.9706208447494C1779.734938695086 275.23056259113014 1838.4470615360724 554.8470476213282 1985.2273686385388 511.91380779385685C2132.0076757410043 468.9805679663855 2264.109952133224 202.35414011475564 2337.500105684457 120.89106967288689 " transform="rotate(93, 400, 400)"></path><path d="M-1475.000002254139 513.4174605191703C-1403.97727301101 417.5367760409464 -1276.1363603733782 20.164605925640714 -1134.0909018871207 53.19017502369563C-992.045443400863 86.21574412175053 -935.22726000636 653.829396232836 -793.1818015201023 671.9401921898339C-651.1363430338448 690.0509881468316 -594.3181596393416 165.69017814481168 -452.272701153084 140.12199561728528C-310.22724266682644 114.55381308975892 -253.40905927232325 563.0623482601175 -111.36360078606572 549.2129160577072C30.681857700191813 535.3634838552971 87.50004109469478 88.55949418677376 229.54549958095254 73.64472104571672C371.59095806721007 58.72994790465969 428.40914146171326 431.81234461881525 570.4545999479706 477.6220049806334C712.5000584342283 523.4316653424514 769.3182418287315 237.06802103415606 911.3637003149893 293.5310907824435C1053.4091588012466 349.99416053073094 1110.2273421957498 741.1873532018844 1252.272800682007 748.6447397724129C1394.3182591682653 756.1021263429413 1451.136442562768 379.39757043738626 1593.1819010490262 329.3265463209804C1735.2273595352835 279.2555222045746 1792.0455429297863 549.8521206208954 1934.091001416044 508.303824013665C2076.1364599023013 466.7555274064346 2203.977372539933 208.72995206614772 2275.0001017830623 129.89472260627474 " transform="rotate(90, 400, 400)"></path><path d="M-1412.5000026876273 509.63686960090433C-1343.8446977526028 416.95220793862126 -1220.2651488695585 32.825776827159075 -1082.9545389995096 64.75049362194548C-945.6439291294605 96.6752104167319 -890.7196851814409 645.3684074574479 -753.4090753113919 662.8755102158791C-616.098465441343 680.3826129743103 -561.1742214933231 173.50049663902433 -423.8636116232742 148.7845868624155C-286.5530017532253 124.06867708580668 -231.6287578052054 557.6269277504866 -94.3181479351565 544.2391432881566C42.99246193489262 530.8513588258269 97.91670588291186 98.94083547958769 235.22731575296098 84.52322144323254C372.5379256230101 70.10560740687741 427.4621695710298 430.75192423056114 564.7727794410789 475.034595913652C702.083389311128 519.3172675967428 757.0076332591475 242.49907809872394 894.3182431291966 297.0800455220684C1031.6288529992453 351.66101294541295 1086.5530969472647 729.8144325275281 1223.8637068173139 737.0232395457056C1361.1743166873634 744.2320465638829 1416.098560635383 380.0843091885131 1553.409170505432 331.68231920932084C1690.7197803754812 283.28032923012853 1745.644024323501 544.8570410325719 1882.9546341935497 504.6936876455826C2020.265244063598 464.53033425859326 2143.8447929466424 215.10561142964917 2212.500097881667 138.89822295177197 " transform="rotate(87, 400, 400)"></path><path d="M-1350.0000031211157 505.85621764748214C-1283.7121224941955 416.36757880113987 -1164.393937365739 45.48688669352117 -1031.8181761118985 76.3107511850391C-899.242414858058 107.13461567655702 -846.2121103565219 636.9073576469035 -713.6363491026815 653.8107672067681C-581.060587848841 670.7141767666328 -528.0302833473047 181.31075409808074 -395.45452209346433 157.44711707238946C-262.87876083962396 133.58348004669818 -209.84845633808754 552.1914462056994 -77.27269508424729 539.26530948345C55.303066169593194 526.3391727612004 108.33337067112916 109.32211573724535 240.90913192496964 95.40166080559212C373.4848931788101 81.48120587393888 426.51519768034655 429.6914428071508 559.090958934187 472.44712581151435C691.6667201880273 515.2028088158779 744.6970246895635 247.93007412813554 877.272785943404 300.6289392265371C1009.848547197244 353.3278043249387 1062.8788516987802 718.4414508180154 1195.4546129526207 725.4016782838419C1328.0303742064616 732.3619057496685 1381.0606787079978 380.7709869044837 1513.6364399618383 334.0380310625049C1646.2122012156788 287.3050752205262 1699.2425057172154 539.8619004090922 1831.8182669710554 501.08349024234394C1964.3940282248955 462.3050800755956 2083.712213353352 221.4812097579944 2150.000093980272 147.90166226211295 " transform="rotate(84, 400, 400)"></path><path d="M-1287.5000035546038 502.07574879952864C-1223.579547235788 415.7831327691272 -1108.5227258619193 58.148179665352046 -980.6818132242875 87.87119185360146C-852.8409005866556 117.59420404185087 -801.7045355316029 628.4464909418277 -673.8636228939711 644.7462073031257C-546.0227102563392 661.0459236644239 -494.8863452012863 189.1211946626059 -367.04543256365446 166.10983038783215C-239.20451992602284 143.0984661130584 -188.06815487096992 546.756147766381 -60.227242233338075 534.2916587842119C67.61367040429377 521.8271698020427 118.75003545934646 119.70357910037177 246.5909480969783 106.28028327342045C374.43186073461015 92.8569874464691 425.56822578966285 428.6311444892091 553.4091384272947 469.85983881484543C681.2500510649265 511.08853314048173 732.3864161199799 253.36125326301587 860.2273287576113 304.17801603647456C988.0682413952431 354.9947788099332 1039.2046064502956 707.0686522139714 1167.0455190879275 713.7803001274469C1294.8864317255598 720.4919480409226 1346.0227967806122 381.457847725923 1473.8637094182445 336.39392602115777C1601.7046220558764 291.33000431639255 1652.8409871109293 534.8669428910812 1780.6818997485607 497.47347594457386C1908.5228123861925 460.08000899806655 2023.579633760061 227.85699119180833 2087.500090078877 156.90528467792265 " transform="rotate(81, 400, 400)"></path><path d="M-1224.9999963586977 498.2950663285283C-1163.446964347986 415.1984731140676 -1052.651506728705 70.80925901413602 -929.5454427072818 99.43141889911695C-806.4393786858586 128.05357878409785 -757.1969530772893 619.9854106137052 -634.0908890558661 635.6814337764367C-510.9848250344428 651.3774569391682 -461.7423994258734 196.93142160408416 -338.63633540445016 174.77233008022796C-215.53027138302696 152.61323855637178 -166.2878457744573 541.3206357040158 -43.1817817530341 529.317794461927C79.9242822683891 517.3149532198381 129.1667078769583 130.08482884045134 252.2727718983815 117.15869211820188C375.3788359198047 104.23255539595246 424.62126152837413 427.5706325482206 547.7273255497973 467.2723381951297C670.8333895712206 506.9740438420387 720.0758151797902 258.7922187748493 843.1818792012132 307.72687922336513C966.2879432226364 356.66153967188086 1015.5303688312056 695.6956399868806 1138.6364328526288 702.1587083480052C1261.7424968740524 708.6217767091299 1310.9849224826216 382.1444949243155 1434.0909865040453 338.74960735676376C1557.197050525469 295.3547197892121 1606.4394761340382 529.8717717500233 1729.545540155461 493.8632480237571C1852.6516041768837 457.85472429749075 1963.4470617961647 234.2325590025754 2025.0000938068765 165.9086934706855 " transform="rotate(78, 400, 400)"></path><path d="M-1162.499996792186 494.5144754102624C-1103.3143890895788 414.6139050117424 -996.7802952248854 83.47042991565438 -878.4090798196708 110.9917374973668C-760.0378644144562 138.51304507907923 -712.6893782523703 611.524421838317 -594.3181628471556 626.616751802482C-475.9469474419409 641.7090817666468 -428.598461279855 204.74174009829682 -310.2272458746403 183.43492132535818C-191.8560304694256 162.12810255241953 -144.50754430733969 535.885215194385 -26.136328902125115 524.3440216923765C92.23488650308968 512.802828190368 139.58337266517538 140.46617013326525 257.9545880703902 128.03719251571772C376.32580347560474 115.60821489817019 423.67428963769066 426.5102121599665 542.0455050429055 464.68492912814827C660.41672044812 502.85964609633004 707.765206610206 264.22327583941717 826.1364220154205 311.2758339629901C944.5076374206351 358.32839208656287 991.856123582721 684.3227193125242 1110.2273389879356 690.5372081212979C1228.5985543931506 696.7516969300715 1275.947040555236 382.8312336754424 1394.318255960451 341.10538024510413C1512.6894713656661 299.379526814766 1560.037957527752 524.8766921617 1678.4091729329662 490.2531116556746C1796.7803883381807 455.6295311496494 1903.314482202874 240.6082183660769 1962.5000899054812 174.9121938161827 " transform="rotate(75, 400, 400)"></path><path d="M-1099.9999972256744 490.73391500957456C-1043.1818138311714 414.0293674269954 -940.9090837210658 96.13163133475085 -827.2727169320598 122.55208661319477C-713.6363501430537 148.9725418916387 -668.1818034274513 603.0634635805071 -554.5454366384452 617.5521003461054C-440.9090698494391 632.0407371117037 -395.4545231338366 212.5520891100876 -281.8181563448305 192.09754308806652C-168.18178955582437 171.6429970660454 -122.72724284022206 530.4498252023322 -9.090876051215673 519.3702794404041C104.54549073779026 508.29073367847593 150.00003745339245 150.8475419436573 263.6364042423986 138.91572343081168C377.2727710314048 126.98390491796603 422.7273177470074 425.4498222892905 536.3636845360134 462.097550578745C650.0000513250193 498.74527886819953 695.4545980406219 269.6543634215632 809.0909648296279 314.8248192201931C922.7273316186338 359.995275018823 968.1818783342364 672.9498291557459 1081.8182451232424 678.9157384121687C1195.4546119122488 684.8816476685914 1240.909158627851 383.5180029441473 1354.5455254168573 343.4611836510227C1468.1818922058637 303.404364357898 1513.636438921466 519.8816430909546 1627.2728057104719 486.64300580517033C1740.9091724994778 453.404368519386 1843.1819026095836 246.98390824715648 1900.0000860040864 183.91572467925806 " transform="rotate(72, 400, 400)"></path><path d="M-1037.4999976591628 486.9533240913086C-983.049238572764 413.44479932467027 -885.0378722172462 108.79280223626921 -776.1363540444487 134.11240521144464C-667.2348358716513 159.43200818662007 -623.6742286025321 594.6024748051191 -514.7727104297347 608.4874183721506C-405.8711922569373 622.3723619391824 -362.3105849878182 220.36240760430027 -253.40906681502065 200.76013433319673C-144.50754864222313 181.15786106209316 -100.94694137310398 525.0144046927014 7.954576799693541 514.3965066708536C116.85609497249084 503.7786086490058 160.41670224160976 161.2288832364712 269.3182204144073 149.7942238283275C378.2197385872048 138.35956442018374 421.78034585632395 424.3894019010364 530.6818640291215 459.51014151176366C639.5833822019188 494.6308811224909 683.1439894710379 275.08542048613106 792.0455076438354 318.3737739598181C900.9470258166325 361.6621274335051 944.5076330857519 661.5769084813895 1053.4091512585492 667.2942381854614C1162.310669431347 673.0115678895331 1205.8712767004663 384.20474169527415 1314.7727948732636 345.816956539363C1423.6743130460613 307.42917138345194 1467.2349203151803 514.8865635026311 1576.1364384879776 483.03286943708787C1685.0379566607744 451.17917537154466 1783.0493230162924 253.35956761065793 1837.5000821026915 192.9192250247553 " transform="rotate(69, 400, 400)"></path><path d="M-974.9999980926511 483.17279420819887C-922.9166633143566 412.8602922575013 -829.1666607134266 121.45403417294382 -724.9999911568377 145.67278484485075C-620.8333216002488 169.8915355167577 -579.1666537776132 586.141547064887 -474.9999842210243 599.4227974333521C-370.8333146644354 612.7040478018172 -329.1666468417998 228.17278713366917 -224.9999772852109 209.42278661348317C-120.83330772862189 190.67278609329716 -79.16663990598624 519.5790452182267 25.000029650602755 509.4227949364593C129.1666992071914 499.2665446546918 170.83336702982706 171.6102855644414 275.00003658641594 160.67278526099955C379.16670614300483 149.73528495755772 420.8333739656405 423.32904254793846 525.0000435222296 456.9227934799385C629.1667130788182 490.5165444119384 670.8333809014541 280.5165385858551 775.0000504580428 321.9227897345992C879.1667200146317 363.32904088334334 920.8333878372671 650.2040488421893 1025.000057393856 655.6727989939102C1129.166726950445 661.1415491456311 1170.8333947730807 384.8915414815573 1275.0000643296698 348.17279046285967C1379.166733886259 311.45403944416205 1420.8334017088941 509.89154494946393 1525.0000712654833 479.42279410416165C1629.166740822072 448.9540432588594 1722.9167434230017 259.73528800931564 1775.0000782012962 201.92278640540877 " transform="rotate(66, 400, 400)"></path><path d="M-912.4999985261394 479.39217277235474C-862.7840880559493 412.27569363759807 -773.2954492096069 134.11517455688406 -673.8636282692266 157.2330729255225C-574.4318073288463 180.35097129416093 -534.6590789526941 577.6805277719208 -435.22725801231377 590.3580849418192C-335.7954370719335 603.0356421117177 -296.0227086957814 235.9830751103037 -196.590887755401 218.08534734103526C-97.15906681502065 200.1876195717668 -57.38633843886839 514.1435941910177 42.045482501511856 504.4489916493306C141.47730344189222 494.7543891076435 181.25003181804436 181.9915963396772 280.6818527584246 171.55125514093726C380.11367369880486 161.11091394219733 419.886402074957 422.26859164210623 519.3182230153373 454.3353538953789C618.7500439557177 486.4021161486516 658.5227723318701 285.94756513284483 757.9545932722501 325.471713956646C857.3864142126301 364.99586278044717 897.1591425887825 638.8310976502546 996.590963529163 644.0512682496246C1096.0227844695432 649.2714388489944 1135.7955128456956 385.5782497151059 1235.227333786076 350.52853283362185C1334.6591547264566 315.4788159521378 1374.4318831026085 504.8964348435623 1473.8637040429885 475.81262721850106C1573.2955249833685 446.7288195934398 1662.784163829711 266.11091685523894 1712.5000742999014 210.92625623332788 " transform="rotate(63, 400, 400)"></path><path d="M-849.9999989596278 475.6116123716669C-802.651512797542 411.69115605285106 -717.4242377057873 146.77637597598053 -622.7272653816156 168.79342204135048C-528.0302930574438 190.8104681067204 -490.1515041277751 569.2195695141107 -395.45453180360346 581.2934334854426C-300.7575594794316 593.3672974567745 -262.87877054976286 243.7934241220945 -168.18179822559125 226.74796910374357C-73.48482590141941 209.70251408539266 -35.606036971750655 508.708204198965 59.090935352420956 499.47524939735825C153.7879076765928 490.24229459575145 191.66669660626144 192.37296815006923 286.36366893043305 182.42978605603122C381.0606412546049 172.48660396199318 418.93943018427353 421.20820177143025 513.6364025084454 451.74797534597565C608.3333748326172 482.2877489205211 646.2121637622859 291.3786527149908 740.9091360864577 329.02069921384907C835.6061084106293 366.66274571270736 873.484897340298 627.4582074934765 968.1818696644698 632.4297985404953C1062.8788419886414 637.4013895875144 1100.7576309183103 386.26501898381093 1195.4546032424819 352.88433623954035C1290.1515755666542 319.5036534952698 1328.0303644963228 499.901385772817 1422.7273368204942 472.2025213679968C1517.4243091446656 444.5036569631765 1602.6515842364201 272.48660673631855 1650.000070398506 219.92978709640323 " transform="rotate(60, 400, 400)"></path><path d="M-787.4999993931161 471.83105197097905C-742.5189375391345 411.106618468104 -661.5530262019677 159.43757739507703 -571.5909024940045 180.35377115717847C-481.6287787860414 201.26996491927991 -445.6439293028561 560.7586112563007 -355.681805594893 572.228782029066C-265.71968188692983 583.6989528018313 -229.73483240374446 251.60377313388528 -139.77270869578138 235.4105908664519C-49.810584987818174 219.21740859901854 -13.825735504632917 503.27281420691224 76.13638820333028 494.5015071453858C166.09851191129349 485.73020008385936 202.08336139447852 202.75433996046127 292.0454851024417 193.30831697112515C382.0076088104049 183.86229398178904 417.9924582935903 420.1478119007542 507.9545820015535 449.1605967965724C597.9167057095167 478.1733816923905 633.9015551927018 296.8097402971367 723.863678900665 332.56968447105214C813.8258026086278 368.3296286449675 849.8106520918134 616.0853173366982 939.7727757997766 620.808328831366C1029.7348995077398 625.5313403260341 1065.7197489909252 386.9517882525159 1155.6818726988884 355.24013964545884C1245.6439964068518 323.52849103840185 1281.6288458900367 494.90633670207166 1371.590969598 468.59241551749244C1461.5530933059626 442.27849433291317 1542.5190046431294 278.8622966173981 1587.5000664971112 228.93331795947856 " transform="rotate(57, 400, 400)"></path><path d="M-724.9999998266044 468.05044579392404C-682.3863622807271 410.52203510698973 -605.681814698148 172.0987330378063 -520.4545396063934 191.91407449663924C-435.22726451463893 211.72941595547218 -401.1363544779371 552.2976072221236 -315.9090793861825 563.1640847963222C-230.68180429442793 574.0305623705209 -196.59089425772606 259.4140763693089 -111.3636191659715 244.07316685279307C-26.136344074216936 228.73225733627723 7.954565962485049 497.83737843849235 93.18184105423961 489.5277191170462C178.40911614599418 481.21805979560014 212.50002618269582 213.13566599448615 297.7273012744504 204.1868021098519C382.95457636620495 195.2379382252177 417.0454864029068 419.08737625371106 502.2727614946614 446.5731724708019C587.500036586416 474.0589686878928 621.5909466231178 302.24078210291555 706.8182217148724 336.118623951888C792.0454968066269 369.99646580086045 826.1364068433288 604.7123814035526 911.3636819350834 609.1868133458696C996.5909570268379 613.6612452881867 1030.6818670635396 387.63851174485364 1115.9091421552946 357.59589727501015C1201.1364172470492 327.55328280516665 1235.227327283751 489.9112418549591 1320.4546023755051 464.9822638906209C1405.6818774672597 440.0532859262827 1482.386425049839 285.2379407221105 1525.0000625957164 237.93680304618672 " transform="rotate(54, 400, 400)"></path><path d="M-662.5000002600927 464.2698548756581C-622.2537870223198 409.93746700466454 -549.8106031943283 184.75990393932466 -469.3181767187824 203.4743930948891C-388.8257502432364 222.18888225045356 -356.628779653018 543.8366184467353 -276.1363531774721 554.0994028223674C-195.64392670192615 564.3621871979994 -163.44695611170766 267.2243948635215 -82.95452963616174 252.73575809792325C-2.4621031606156976 238.24712133232498 29.734867429602787 492.40195792886146 110.22729390514871 484.55394634749564C190.71972038069464 476.70593476612993 222.916690970913 223.51700728730006 303.4091174464588 215.06530250736773C383.901543922005 206.6135977274354 416.0985145122236 418.0269558654569 496.5909409877695 443.98576340382056C577.0833674633154 469.94457094218416 609.2803380535338 307.67183916748337 689.7727645290797 339.6675786915129C770.2651910046256 371.66331821554246 802.4621615948438 593.3394607291962 882.9545880703902 597.5653131191623C963.4470145459363 601.7911655091284 995.6439851361545 388.32525049598047 1076.1364116117006 359.9516701633505C1156.6288380872468 331.57808983072056 1188.8258086774651 484.91616226663564 1269.318235153011 461.37212752253845C1349.8106616285568 437.82809277844126 1422.2538454565479 291.61360008561195 1462.500058694321 246.94030339168393 " transform="rotate(51, 400, 400)"></path><path d="M-600.0000617287374 460.4893249925484C-562.1212727990687 409.35295993749565 -493.939452725665 197.42113587599925 -418.1818748663276 215.03477272829522C-342.42429700699023 232.6484095805912 -312.12126586325525 535.3756907065035 -236.3636880039179 545.0347818835689C-160.6061101445805 554.6938730606345 -130.3030790008455 275.0347743928904 -54.54550114150811 261.3984103782097C21.21207671782929 247.76204636352898 51.515107861564275 486.9665984543869 127.27268572090168 479.5802346131014C203.03026358023908 472.193870771816 233.33329472397406 233.89840961527023 309.09087258331135 225.94386394003982C384.84845044264875 217.98931826480938 415.15148158638385 416.96659651235905 490.90905944572114 441.3984153719954C566.6666373050584 465.8302342316317 596.9696684487935 313.10295726720744 672.727246308131 343.2165944662941C748.4848241674681 373.3302316653807 778.7878553112032 581.966601089996 854.5454331705405 585.9438739276111C930.3030110298782 589.9211467652262 960.6060421736129 389.01205028226354 1036.3636200329506 362.3075040868471C1112.1211978922881 335.6029578914307 1142.4242290360228 479.92114371346844 1218.1818068953603 457.76205218961223C1293.9393847546976 435.6029606657561 1362.121204828101 297.9893204842697 1399.9999937577695 255.9438647723374 " transform="rotate(48, 400, 400)"></path><path d="M-537.5000621622257 456.7087035567043C-501.9886975406613 408.76836131759234 -438.06824122184537 210.0822762599395 -367.04551197871655 226.59506080896696C-296.0227827355877 243.1078453579944 -267.61369103833624 526.9146714135371 -196.59096179520742 535.9700693920361C-125.56823255207865 545.0254673705349 -97.15914085482706 282.84506236952495 -26.136411611698236 270.0609711057618C44.88631763143053 257.2768798419986 73.29540932868213 481.53114742717787 144.3181385718109 474.6064313259727C215.34086781493966 467.6817152247677 243.74995951219114 244.27972039050601 314.77268875532 236.8223338199775C385.7954179984488 229.364947249449 414.2045096957004 415.90614560652676 485.22723893882903 438.81097578743584C556.2499681819579 461.71580596834485 584.6590598792095 318.5339838141972 655.6817891223384 346.7655186883409C726.704518365467 374.9970535624846 755.1136100627186 570.5936498980614 826.1363393058473 574.3223431833255C897.1590685489764 578.0510364685898 925.5681602462278 389.6987585158123 996.5908894893569 364.6632464576094C1067.6136187324855 339.62773439940645 1096.022710429737 474.92603360756686 1167.0454396728658 454.15188530395164C1238.0681689159944 433.3777370003364 1301.9886252348103 304.364949330193 1337.499989856375 264.9473346002565 " transform="rotate(45, 400, 400)"></path><path d="M-475.00006259571404 452.9281278972274C-441.8561222822539 408.18380847405626 -382.1970297180257 222.7434624202469 -315.9091490911055 238.15539466600586C-249.62126846418528 253.56732691176484 -223.10611621341718 518.4536978969381 -156.818235586497 526.9054026768704C-90.53035495957675 535.3571074568027 -64.0152027088086 290.65539612252667 2.27267791811164 278.72357760968106C68.56055854503177 266.7917590968354 95.07571079579998 476.09574217633605 161.3635914227201 469.6326738152113C227.65147204964035 463.16960545408654 254.16662430040833 254.661076942109 320.45450492732857 247.70084947628237C386.7423855542488 240.74062201045578 413.257537805017 414.8457404770617 479.54541843193726 436.2235819792435C545.8332990588574 457.6014234814253 572.3484513096255 323.9650561375541 638.6363319365457 350.3144886867549C704.9242125634657 376.6639212359557 731.4393648142338 559.220744482494 797.7272454411541 562.7008582154073C864.0151260680746 566.1809719483206 890.5302783188426 390.3855125257282 956.8181589457629 367.01903460473875C1023.1060395726831 343.6525566837494 1049.6211918234515 469.9309692780324 1115.9090724503715 450.5417641946583C1182.1969530772915 431.1525591112841 1241.8560456415198 310.74062395248353 1274.9999859549798 273.9508502045428 " transform="rotate(42, 400, 400)"></path><path d="M-412.50006302920235 449.14755223775046C-381.72354702384655 407.59925563052013 -326.32581821420604 235.40464858055435 -264.77278620349443 249.7157285230448C-203.21975419278283 264.0268084655353 -178.59854138849818 509.9927243803389 -117.04550937778657 517.8407359617047C-55.49247736707491 525.6887475430703 -30.871264562790202 298.4657298755284 30.681767447921402 287.38618411360034C92.234799458633 276.30663835167223 116.85601226291783 470.6603369254942 178.40904427362943 464.6589163044498C239.96207628434104 458.6574956834054 264.58328908862563 265.042433493712 326.13632109933724 258.57936513258727C387.68935311004884 252.11629677146254 412.31056591433355 413.78533534759663 473.86359792504516 433.6361881710512C535.4166299357568 453.4870409945057 560.0378427400415 329.396128460911 621.5908747507531 353.8634586851689C683.1439067614647 378.33078890942676 707.7651195657493 547.8478390669266 769.3181515764609 551.079373247489C830.8711835871727 554.3109074280512 855.4923963914573 391.0722665356441 917.0454284021691 369.37482275186824C978.598460412881 347.6773789680924 1003.2196732171656 464.935904948498 1064.772705227877 446.93164308536484C1126.3257372385883 428.9273812222317 1181.7234660482288 317.116298574774 1212.4999820535847 282.9543658088291 " transform="rotate(39, 400, 400)"></path><path d="M-350.0000634626907 445.3669613194845C-321.59097176543924 407.01468752819494 -270.45460671038643 248.0658194820727 -213.6364233158834 261.27604712129465C-156.81823992138038 274.4862747605166 -134.09096656357917 501.5317356049508 -77.27278316907609 508.77605398774995C-20.45459977457307 516.0203723705491 2.2726735832281975 306.2760483697411 59.09085697773122 296.0487753587305C115.90904037223436 285.82150234771996 138.63631373003545 465.2249164158634 195.45449712453865 459.68514353489934C252.27268051904161 454.14537065393523 274.9999538768427 275.4237747865259 331.8181372713458 269.4578655301031C388.63632066584887 263.4919562736803 411.3635940236502 412.7249149593425 468.18177741815316 431.04877910406975C524.9999608126561 449.37264324879703 547.7272341704575 334.82718552547885 604.5454175649604 357.41241342479384C661.3636009594634 379.99764132410877 684.0908743172647 536.4749183925702 740.9090577117677 539.4578730207816C797.7272411062709 542.440827648993 820.454514464072 391.75900528677096 877.2726978585752 371.7305956402086C934.0908812530784 351.70218599364625 956.8181546108794 459.9408253601746 1013.6363380053824 443.32150671728243C1070.4545213998854 426.7021880743903 1121.5908864549383 323.4919579382755 1149.9999781521897 291.9578661543263 " transform="rotate(36, 400, 400)"></path><path d="M-287.5000638961791 441.5864009187967C-261.4583965070318 406.43014994344793 -214.5833952065668 260.72702090116917 -162.50006042827235 272.83639623712264C-110.4167256499779 284.9457715730761 -89.58339173866011 493.0707773471408 -37.50005696036567 499.7114025313733C14.583277817928774 506.35202771560586 35.4166117292466 314.08639738153187 87.49994650754104 304.71139712143884C139.58328128583554 295.33639686134586 160.4166151971533 459.7895264238106 212.49994997544786 454.7114012829269C264.5832847537422 449.6332761420432 285.41661866506 285.80514659691795 337.49995344335446 280.33639644519707C389.5832882216489 274.8676462934761 410.4166221329667 411.6645250886665 462.4999569112613 428.4614005546665C514.5832916895556 445.2582760206665 535.4166256008735 340.2582731076248 587.4999603791679 360.96139868199685C639.5832951574623 381.66452425636896 660.41662906878 525.102028235792 712.4999638470745 527.8364033116524C764.583298625369 530.5707783875127 785.4166325366868 392.4457745554759 837.4999673149814 374.0863990461271C889.583302093276 355.7270235367783 910.4166360045936 454.9457762894292 962.4999707828881 439.7114008667781C1014.5833055611824 424.477025444127 1061.4583068616473 329.86764781935506 1087.4999742507946 300.9613970174016 " transform="rotate(33, 400, 400)"></path><path d="M-225.0000643296674 437.80577948295263C-201.32582124862446 405.84555132354467 -158.71218370274715 273.3881612851094 -111.36369754066129 284.3966843177944C-64.01521137857543 295.4052073504794 -45.07581691374108 484.6097580541745 2.272669248344755 490.64669003984045C49.621155410430674 496.6836220255064 68.56054987526505 321.8966853581664 115.90903603735086 313.3739578489909C163.25752219943678 304.85123033981546 182.19691666427116 454.3540753966016 229.54540282635696 449.7375979957983C276.8938889884429 445.12112059499486 295.8332834532772 296.18645737215377 343.181769615363 291.2148663251347C390.53025577744893 286.24327527811573 409.46965024228325 410.60407418283427 456.81813640436917 425.87396097010696C504.1666225664551 441.1438477573797 523.1060170312894 345.68929965461456 570.4545031933753 364.5103229040437C617.8029893554611 383.33134615347285 636.7423838202955 513.7290770438574 684.0908699823814 516.2148725673668C731.4393561444672 518.7006680908763 750.3787506093017 393.1324827890246 797.7272367713874 376.4421414168893C845.0757229334736 359.7518000447541 864.0151173983079 449.95066618352763 911.3636035603936 436.1012339811175C958.7120897224793 422.25180177870743 1001.3257272683566 336.2432766652784 1024.9999703493995 309.9648668453207 " transform="rotate(30, 400, 400)"></path><path d="M-162.50006476315573 434.0252343410538C-141.1932459902171 405.26102899758666 -102.84097219892752 286.049377962995 -60.227334653050235 295.95704869241143C-17.61369710717298 305.8647194218279 -0.5682420888220747 476.1488150551536 42.045395457055236 481.5820538422529C84.65903300293252 487.01529262935225 101.70448802128345 329.70704962874623 144.31812556716073 322.03659487048833C186.93176311303802 314.3661401122304 203.977218131389 448.918700663338 246.5908556772663 444.7638710026149C289.2044932231436 440.60904134189184 306.2499482414944 306.56784444133484 348.8635857873717 302.09341249901775C391.47722333324896 297.61898055670065 408.5226783515999 409.5436995709473 451.1363158974772 423.28659767949273C493.74995344335446 437.02949578803816 510.7954084617054 351.12040249554957 553.4090460075827 368.0593234200358C596.02268355346 384.99824434452205 613.0681385718109 502.3562021458681 655.6817761176882 504.5934181170266C698.2954136635655 506.83063408818515 715.3408686819163 393.8192673165186 757.9545062277938 378.7979600815969C800.5681437736712 363.7766528466751 817.613598792022 444.95563237157137 860.2272363378991 432.4911433894023C902.8408738837763 420.02665440723314 941.193147675066 342.6189818051471 962.4999664480047 318.96841296718515 " transform="rotate(27, 400, 400)"></path><path d="M-100.00002704967142 430.2446281639988C-81.06063258483707 404.6764456364724 -46.96972254813522 298.71053360572427 -9.090933618466522 307.51735203187224C28.78785531120215 316.3241704580202 43.93937088306964 467.68781102097637 81.81815981273832 472.5173566095091C119.69694874240702 477.34690219804185 134.8484643142745 337.5173528641698 172.7272532439432 330.6991708568295C210.6060421736119 323.8809888494891 225.7575577454794 443.4832648949181 263.6363466751481 439.7900829742753C301.5151356048168 436.0969010536326 316.6666511766843 316.9491704753597 354.545440106353 312.9718976377445C392.42422903602164 308.9946248001293 407.5757446078892 408.48326392390413 445.45453353755784 420.6991733537223C483.3333224672265 432.91508278354047 498.48483803909403 356.55144430132833 536.3636269687628 371.60826290087164C574.2424158984313 386.665081500415 589.3939314702989 490.9832662127226 627.2727203999675 492.97190263153016C665.1515093296364 494.96053905033773 680.3030249015037 394.5059908088564 718.1818138311726 381.15371771114815C756.0606027608413 367.80144461343997 771.2121183327087 439.9605375244588 809.0909072623774 428.8809917625307C846.9696961920461 417.80144600060265 881.0606062287479 348.99462590985945 900.000000693582 327.9718980538933 " transform="rotate(24, 400, 400)"></path><path d="M-37.49999696558163 426.46405631921914C-20.92802680885157 404.0918966076336 8.901519473262539 311.37172358072894 42.04545978672263 319.0776897036084C75.18940010018275 326.7836558264879 88.4469762255668 459.22684131907454 121.59091653902689 463.45269370904066C154.73485685248704 467.67854609900684 167.9924329778711 345.3276904318688 201.1363732913312 339.361781175446C234.28031360479127 333.3958719190232 247.53788973017538 438.04786345877346 280.68183004363544 434.81632927821113C313.82577035709556 431.58479509764874 327.08334648247956 327.33053084166 360.2272867959397 323.8504171087467C393.3712271093998 320.3703033758334 406.6288032347839 407.42286260913636 439.7727435482441 418.1117833602272C472.9166838617041 428.8007041113181 486.17425998708813 361.98252043938254 519.3182003005483 375.1572367139829C552.4621406140083 388.33195298858334 565.7197167393923 479.61036461185245 598.8636570528524 481.3504214783091C632.0075973663127 483.09047834476576 645.2651734916967 395.1927486334696 678.4091138051568 383.50950967297484C711.553054118617 371.8262707124802 724.8106302440011 434.9654770096217 757.9545705574611 425.2708744679346C791.0985108709211 415.5762719262475 820.9280571530353 355.3703043468472 837.5000273097653 336.97541747287687 " transform="rotate(21, 400, 400)"></path><path d="M25.00000260093003 422.6834882891368C39.20454844955579 403.507351393492 64.77273097708218 324.0329173704309 93.18182267433369 330.63803119004183C121.5909143715852 337.24314500965284 132.9545510504858 450.76587543187 161.36364274773734 454.3880346232695C189.77273444498886 458.0101938146691 201.1363711238895 353.13803181426505 229.54546282114097 348.0243953087598C257.95455451839257 342.9107588032545 269.3181911972931 432.6124658373262 297.7272828945447 429.8425793968442C326.1363745917962 427.0726929563622 337.50001127069675 337.7118950226575 365.9091029679483 334.72894039444606C394.3181946651998 331.7459857662347 405.6818313441005 406.3624651090658 434.09092304135197 415.52439718142944C462.50001473860345 424.686329253793 473.8636514175041 367.41360039213396 502.2727431147556 378.70621434179145C530.6818348120071 389.99882829144894 542.0454714909077 468.23746682567963 570.4545631881592 469.7289441397853C598.8636548854108 471.22042145389105 610.2272915643114 395.87951027278 638.636383261563 385.8653054494988C667.0454749588146 375.85110062621766 678.4091116377151 429.9704203094818 706.8182033349666 421.66076098803575C735.2272950322181 413.35110166658967 760.7954775597445 361.7459865985323 775.0000234083702 345.9789407065577 " transform="rotate(18, 400, 400)"></path><path d="M87.50000216744169 418.90289737087085C99.33712370796316 402.92278329116687 120.64394248090181 336.6940882719492 144.31818556194474 342.1983497882917C167.99242864298768 347.7026113046342 177.46212587540487 442.3048866564818 201.13636895644777 445.32335264931476C224.81061203749073 448.3418186421477 234.28030926990792 360.94835030847776 257.95455235095085 356.68698655389C281.6287954319938 352.4256227993023 291.09849266441097 427.17704532769534 314.7727357454539 424.8688066272937C338.44697882649683 422.56056792689196 347.916676058914 348.0932363154714 371.5909191399569 345.6074407919619C395.26516222099985 343.1216452684524 404.734859453417 405.30204472081164 428.40910253446 412.936988114448C452.08334561550294 420.5719315080844 461.5530428479201 372.8446574567018 485.22728592896306 382.2551690814164C508.90152901000596 391.66568070613096 518.3712262424231 456.8645461513232 542.045469323466 458.10744391307793C565.719712404509 459.3503416748327 575.1894096369263 396.56624902390683 598.8636527179691 388.2210783378392C622.5378957990122 379.87590765177157 632.0075930314293 424.9753407211583 655.6818361124722 418.0506246199533C679.356079193515 411.12590851874825 700.6628979664537 368.12164596203377 712.5000195069751 354.9824410520549 " transform="rotate(15, 400, 400)"></path><path d="M149.9999864751643 415.12231789669664C159.46968370758145 402.33822663293347 176.5151387259324 349.35527061755937 195.45453319076674 353.75867983063335C214.3939276556011 358.16208904370734 221.9696854415348 433.84390932518545 240.90907990636916 436.2586821194518C259.8484743712035 438.67345491371816 267.4242321571372 368.7586802467822 286.3636266219716 365.349589243112C305.303021086806 361.9404982394418 312.8787788727397 421.7416362621563 331.8181733375741 419.8950453018349C350.7575678024084 418.04845434151355 358.3333255883422 358.47458905237715 377.2727200531765 356.4859526335695C396.2121145180108 354.4973162147619 403.7878723039446 404.24163577664933 422.7272667687789 410.3495904915584C441.66666123361324 416.4575452064675 449.242419019547 378.27572596536146 468.1818134843814 385.8041352651331C487.12120794921566 393.33254456490477 494.69696573514943 445.49163692105856 513.6363601999838 446.48595513046234C532.5757546648182 447.48027333986613 540.1515124507519 397.25299921912546 559.0909069155863 390.57686267027134C578.0303013804207 383.9007261214172 585.6060591663543 419.98027257692667 604.5454536311887 414.4404996959626C623.484848096023 408.90072681499856 640.530303114374 374.497316769627 650.000000346791 363.9859528416439 " transform="rotate(12, 400, 400)"></path><path d="M212.49998604167595 411.34173460782523C219.60225896598882 401.75366616000287 232.38635022975203 362.01644914847225 246.5908960783778 365.31900605827775C260.79544192700354 368.62156296808325 266.47726026645387 425.3829281791918 280.6818061150796 427.1940077748916C294.88635196370535 429.00508737059135 300.5681703031557 376.5690063703894 314.7727161517814 374.01218811763675C328.9772620004072 371.4553698648841 334.6590803398575 416.30622338191995 348.8636261884833 414.9212801616789C363.06817203710904 413.5363369414379 368.7499903765593 368.8559379745856 382.95453622518505 367.3644606604799C397.15908207381085 365.87298334637416 402.8409004132612 403.18122301778976 417.0454462618869 407.76218905397155C431.24999211051266 412.34315509015335 436.931810449963 383.7067906593238 451.13635629858874 389.35309763415256C465.3409021472145 394.9994046089813 471.0227204866648 434.1187238760966 485.22726633529055 434.8644625331495C499.43181218391635 435.61020119020236 505.1136305233666 397.9397455996468 519.3181763719924 392.93264318800624C533.5227222206182 387.92554077636566 539.2045405600685 414.98520061799775 553.4090864086943 410.8303709572747C567.61363225732 406.67554129655167 580.3977235210832 380.87298376252295 587.499996445396 372.98946081653565 " transform="rotate(9, 400, 400)"></path><path d="M274.9999856081876 407.561160855697C279.7348342243962 401.16911522381537 288.25756173357166 374.67763721612835 297.7272589659888 376.8793418226653C307.19695619840604 379.08104642920233 310.9848350913729 416.92195656994136 320.45453232379003 418.12934296707454C329.92422955620725 419.3367293642077 333.7121084491741 384.37934203073974 343.1818056815913 382.6747965289046C352.65150291400846 380.97025102706954 356.43938180697535 410.87082003842676 365.9090790393925 409.9475245582661C375.37877627180967 409.0242290781054 379.16665516477656 379.2372964335372 388.6363523971937 378.24297822413337C398.1060496296109 377.2486600147296 401.89392852257777 402.1208197956733 411.3636257549949 405.1747971531278C420.8333229874121 408.22877451058235 424.621201880379 389.13786489002933 434.09089911279614 392.9020695399152C443.5605963452133 396.666274189801 447.3484752381802 422.7458203678779 456.81817247059735 423.2429794725798C466.28786970301456 423.7401385772817 470.0757485959814 398.6265015169114 479.5454458283986 395.2884332424843C489.01514306081583 391.9503649680573 492.8030219537826 409.990138195812 502.2727191861998 407.22025175532997C511.742416418617 404.45036531484794 520.2651439277925 387.2486602921621 524.999992544001 381.9929783281706 " transform="rotate(6, 400, 400)"></path><path d="M337.4999966187911 403.7805813815228C339.86742092689536 400.58455856558203 344.1287846814831 387.3388195617385 348.86363329769165 388.43967186500697C353.5984819139003 389.54052416827545 355.4924213603837 408.460979238645 360.2272699765923 409.0646724372116C364.9621185928009 409.6683656357782 366.85605803928433 392.1896719690442 371.5909066554929 391.3373992181266C376.3257552717015 390.48512646720906 378.21969471818494 405.4354109728877 382.9545433343935 404.97376323280736C387.6893919506021 404.51211549272705 389.58333139708554 389.6186491704429 394.3181800132941 389.121490065741C399.0530286295027 388.6243309610391 400.94696807598615 401.06041085151094 405.68181669219473 402.58739953023826C410.4166653084033 404.1143882089655 412.31060475488675 394.568933398689 417.04545337109533 396.4510357236319C421.7803019873039 398.3331380485748 423.67424143378736 411.3729111376133 428.40909004999594 411.6214906899642C433.1439386662046 411.8700702423152 435.03787811268796 399.31325171213 439.7727267288966 397.64421757491647C444.5075753451052 395.9751834377029 446.40151479158857 404.9950700515803 451.13636340779715 403.6101268313393C455.8712120240058 402.22518361109826 460.1325757785935 393.6243310997554 462.50000008669775 390.9964901177596 " transform="rotate(3, 400, 400)"></path></g></svg>